<svg width="18" height="17" viewBox="0 0 18 17" fill="none" xmlns="http://www.w3.org/2000/svg">
    <path d="M11.3816 2.625C10.3231 0.791665 7.6769 0.79167 6.61843 2.625L1.42228 11.625C0.363801 13.4583 1.6869 15.75 3.80385 15.75H14.1962C16.3131 15.75 17.6362 13.4583 16.5777 11.625L11.3816 2.625Z" fill="white" stroke="#FF4A4A" stroke-width="1.5"/>
    <path d="M9.87358 3.81818L9.74432 11.0717H8.36719L8.23793 3.81818H9.87358ZM9.05824 14.0945C8.78314 14.0945 8.54782 13.9983 8.35227 13.8061C8.15672 13.6106 8.06061 13.3752 8.06392 13.1001C8.06061 12.8284 8.15672 12.5964 8.35227 12.4041C8.54782 12.2086 8.78314 12.1108 9.05824 12.1108C9.3267 12.1108 9.55871 12.2086 9.75426 12.4041C9.94981 12.5964 10.0492 12.8284 10.0526 13.1001C10.0492 13.2824 10.0012 13.4498 9.90838 13.6023C9.81889 13.7514 9.69957 13.8707 9.55043 13.9602C9.40128 14.0497 9.23722 14.0945 9.05824 14.0945Z" fill="#FF4A4A"/>
</svg>
