<svg width="322" height="38" viewBox="0 0 322 38" fill="none" xmlns="http://www.w3.org/2000/svg">
<path d="M207.875 33.3594C207.885 32.6823 207.956 32.1354 208.086 31.7188C208.216 31.3021 208.401 30.9661 208.641 30.7109C208.88 30.4557 209.203 30.2083 209.609 29.9688C209.953 29.7604 210.229 29.4948 210.438 29.1719C210.646 28.849 210.75 28.4844 210.75 28.0781C210.75 27.7344 210.669 27.4297 210.508 27.1641C210.346 26.8984 210.122 26.6953 209.836 26.5547C209.549 26.4141 209.234 26.3438 208.891 26.3438C208.578 26.3438 208.286 26.4062 208.016 26.5312C207.745 26.6562 207.518 26.8568 207.336 27.1328C207.154 27.4089 207.047 27.75 207.016 28.1562H205.594C205.625 27.5417 205.789 27.0078 206.086 26.5547C206.383 26.1016 206.776 25.7552 207.266 25.5156C207.755 25.276 208.297 25.1562 208.891 25.1562C209.536 25.1562 210.104 25.2839 210.594 25.5391C211.083 25.7943 211.461 26.1484 211.727 26.6016C211.992 27.0547 212.125 27.5677 212.125 28.1406C212.125 28.7344 211.992 29.25 211.727 29.6875C211.461 30.125 211.078 30.5 210.578 30.8125C210.245 31.0104 209.984 31.2188 209.797 31.4375C209.609 31.6562 209.469 31.9167 209.375 32.2188C209.281 32.5208 209.229 32.901 209.219 33.3594V33.4375H207.875V33.3594ZM208.594 36.7188C208.417 36.7188 208.25 36.6719 208.094 36.5781C207.938 36.4844 207.815 36.3594 207.727 36.2031C207.638 36.0469 207.594 35.8802 207.594 35.7031C207.594 35.526 207.638 35.3594 207.727 35.2031C207.815 35.0469 207.938 34.9245 208.094 34.8359C208.25 34.7474 208.417 34.7031 208.594 34.7031C208.771 34.7031 208.938 34.7474 209.094 34.8359C209.25 34.9245 209.372 35.0469 209.461 35.2031C209.549 35.3594 209.594 35.526 209.594 35.7031C209.594 35.8802 209.549 36.0469 209.461 36.2031C209.372 36.3594 209.25 36.4844 209.094 36.5781C208.938 36.6719 208.771 36.7188 208.594 36.7188Z" fill="#222222"/>
<path d="M196.188 35.3281H194.984V31.1719H196.188V35.3281ZM201.391 35.3281H200.156V31.1719H201.391V35.3281ZM204.547 36.1094H191.828V35.0781H204.547V36.1094ZM198.156 24.875C199.146 24.875 200.023 25.0234 200.789 25.3203C201.555 25.6172 202.154 26.0365 202.586 26.5781C203.018 27.1198 203.234 27.7448 203.234 28.4531C203.234 29.1615 203.018 29.7839 202.586 30.3203C202.154 30.8568 201.555 31.2734 200.789 31.5703C200.023 31.8672 199.146 32.0156 198.156 32.0156C197.177 32.0156 196.302 31.8672 195.531 31.5703C194.76 31.2734 194.159 30.8568 193.727 30.3203C193.294 29.7839 193.078 29.1615 193.078 28.4531C193.078 27.7448 193.294 27.1198 193.727 26.5781C194.159 26.0365 194.76 25.6172 195.531 25.3203C196.302 25.0234 197.177 24.875 198.156 24.875ZM198.156 25.8906C197.406 25.8802 196.737 25.9818 196.148 26.1953C195.56 26.4089 195.099 26.7109 194.766 27.1016C194.432 27.4922 194.266 27.9427 194.266 28.4531C194.266 28.9635 194.432 29.4141 194.766 29.8047C195.099 30.1953 195.56 30.5 196.148 30.7188C196.737 30.9375 197.406 31.0469 198.156 31.0469C198.906 31.0469 199.576 30.9375 200.164 30.7188C200.753 30.5 201.214 30.1953 201.547 29.8047C201.88 29.4141 202.047 28.9635 202.047 28.4531C202.047 27.9427 201.88 27.4922 201.547 27.1016C201.214 26.7109 200.753 26.4089 200.164 26.1953C199.576 25.9818 198.906 25.8802 198.156 25.8906Z" fill="#222222"/>
<path d="M181.734 25.0781C182.411 25.0781 183.01 25.2786 183.531 25.6797C184.052 26.0807 184.461 26.6458 184.758 27.375C185.055 28.1042 185.203 28.9531 185.203 29.9219C185.203 30.8906 185.055 31.7396 184.758 32.4688C184.461 33.1979 184.052 33.7604 183.531 34.1562C183.01 34.5521 182.411 34.75 181.734 34.75C181.057 34.75 180.456 34.5521 179.93 34.1562C179.404 33.7604 178.992 33.1979 178.695 32.4688C178.398 31.7396 178.25 30.8906 178.25 29.9219C178.25 28.9531 178.398 28.1042 178.695 27.375C178.992 26.6458 179.404 26.0807 179.93 25.6797C180.456 25.2786 181.057 25.0781 181.734 25.0781ZM181.734 26.1719C181.286 26.1719 180.885 26.3281 180.531 26.6406C180.177 26.9531 179.904 27.3906 179.711 27.9531C179.518 28.5156 179.422 29.1719 179.422 29.9219C179.422 30.6615 179.518 31.3151 179.711 31.8828C179.904 32.4505 180.177 32.888 180.531 33.1953C180.885 33.5026 181.286 33.6562 181.734 33.6562C182.182 33.6562 182.583 33.5026 182.938 33.1953C183.292 32.888 183.565 32.4505 183.758 31.8828C183.951 31.3151 184.047 30.6615 184.047 29.9219C184.047 29.1719 183.951 28.5156 183.758 27.9531C183.565 27.3906 183.294 26.9531 182.945 26.6406C182.596 26.3281 182.193 26.1719 181.734 26.1719ZM189.516 37.9219H188.297V24H189.516V37.9219ZM188.844 30.3281H184.797V29.3125H188.844V30.3281Z" fill="#222222"/>
<path d="M170.328 25.0312C170.328 26.125 170.122 27.1302 169.711 28.0469C169.299 28.9635 168.695 29.7786 167.898 30.4922C167.102 31.2057 166.12 31.8125 164.953 32.3125L164.312 31.4062C165.344 30.9792 166.216 30.4688 166.93 29.875C167.643 29.2812 168.182 28.6094 168.547 27.8594C168.911 27.1094 169.094 26.2969 169.094 25.4219V25.0312H170.328ZM169.578 26.0469H164.906V25.0312H169.578V26.0469ZM175.969 32.0469H174.797V24.0156H175.969V32.0469ZM172.312 28.9844H168.906V27.9688H172.312V28.9844ZM173.172 31.8281H172V24.3125H173.172V31.8281ZM168.781 33.4531C168.781 34.0573 168.656 34.6484 168.406 35.2266C168.156 35.8047 167.792 36.3229 167.312 36.7812C166.833 37.2396 166.271 37.5938 165.625 37.8438L165 36.9375C165.573 36.7292 166.073 36.4375 166.5 36.0625C166.927 35.6875 167.258 35.2708 167.492 34.8125C167.727 34.3542 167.844 33.901 167.844 33.4531V32.5156H168.781V33.4531ZM169.016 33.4531C169.016 33.9323 169.109 34.4036 169.297 34.8672C169.484 35.3307 169.771 35.75 170.156 36.125C170.542 36.5 171.005 36.8021 171.547 37.0312L171.016 37.9688C170.37 37.7083 169.831 37.3438 169.398 36.875C168.966 36.4062 168.643 35.875 168.43 35.2812C168.216 34.6875 168.109 34.0781 168.109 33.4531V32.5156H169.016V33.4531ZM173.906 33.4531C173.906 34.0156 173.797 34.5911 173.578 35.1797C173.359 35.7682 173.034 36.3125 172.602 36.8125C172.169 37.3125 171.641 37.6979 171.016 37.9688L170.469 37.0312C171 36.7812 171.456 36.4557 171.836 36.0547C172.216 35.6536 172.505 35.2214 172.703 34.7578C172.901 34.2943 173 33.8594 173 33.4531V32.5156H173.906V33.4531ZM174.188 33.4531C174.188 33.9323 174.302 34.401 174.531 34.8594C174.76 35.3177 175.091 35.7292 175.523 36.0938C175.956 36.4583 176.458 36.7396 177.031 36.9375L176.422 37.8438C175.766 37.6042 175.195 37.263 174.711 36.8203C174.227 36.3776 173.859 35.8646 173.609 35.2812C173.359 34.6979 173.234 34.0885 173.234 33.4531V32.5156H174.188V33.4531Z" fill="#222222"/>
<path d="M155.078 27.7344C155.078 28.7656 154.901 29.7682 154.547 30.7422C154.193 31.7161 153.711 32.5729 153.102 33.3125C152.492 34.0521 151.807 34.6146 151.047 35L150.266 33.9688C150.953 33.6458 151.586 33.1615 152.164 32.5156C152.742 31.8698 153.203 31.125 153.547 30.2812C153.891 29.4375 154.062 28.5885 154.062 27.7344V25.2031H155.078V27.7344ZM155.281 27.7344C155.281 28.5573 155.451 29.3724 155.789 30.1797C156.128 30.987 156.586 31.7057 157.164 32.3359C157.742 32.9661 158.37 33.4375 159.047 33.75L158.297 34.7188C157.557 34.3542 156.878 33.8151 156.258 33.1016C155.638 32.388 155.148 31.5625 154.789 30.625C154.43 29.6875 154.25 28.724 154.25 27.7344V25.2031H155.281V27.7344ZM161.797 37.9219H160.562V24H161.797V37.9219Z" fill="#222222"/>
<path d="M147.266 37.8906H146.047V24H147.266V37.8906ZM149.594 30.75H146.984V29.7344H149.594V30.75ZM144.703 27.25H136.438V26.2344H144.703V27.25ZM140.641 28.4062C141.297 28.4062 141.883 28.5417 142.398 28.8125C142.914 29.0833 143.318 29.4609 143.609 29.9453C143.901 30.4297 144.047 30.9792 144.047 31.5938C144.047 32.2083 143.901 32.7578 143.609 33.2422C143.318 33.7266 142.914 34.1042 142.398 34.375C141.883 34.6458 141.297 34.7812 140.641 34.7812C139.984 34.7812 139.398 34.6458 138.883 34.375C138.367 34.1042 137.964 33.7266 137.672 33.2422C137.38 32.7578 137.234 32.2083 137.234 31.5938C137.234 30.9792 137.38 30.4297 137.672 29.9453C137.964 29.4609 138.367 29.0833 138.883 28.8125C139.398 28.5417 139.984 28.4062 140.641 28.4062ZM140.641 29.4375C140.214 29.4375 139.831 29.5286 139.492 29.7109C139.154 29.8932 138.888 30.1484 138.695 30.4766C138.503 30.8047 138.406 31.1771 138.406 31.5938C138.406 32.0104 138.503 32.3802 138.695 32.7031C138.888 33.026 139.154 33.2786 139.492 33.4609C139.831 33.6432 140.214 33.7344 140.641 33.7344C141.068 33.7344 141.451 33.6432 141.789 33.4609C142.128 33.2786 142.393 33.026 142.586 32.7031C142.779 32.3802 142.875 32.0104 142.875 31.5938C142.875 31.1771 142.779 30.8047 142.586 30.4766C142.393 30.1484 142.128 29.8932 141.789 29.7109C141.451 29.5286 141.068 29.4375 140.641 29.4375ZM141.234 26.7031H140.016V24.1719H141.234V26.7031Z" fill="#222222"/>
<path d="M127.969 34.3281H126.75V31.3438H127.969V34.3281ZM131.109 31.7031H123.828V30.7031H131.109V31.7031ZM131.047 26.2656H125.062V31.0781H123.828V25.2656H131.047V26.2656ZM130.75 28.9375H124.688V27.9688H130.75V28.9375ZM134.078 37.9219H132.859V24H134.078V37.9219ZM123.109 34.0625C124.964 34.0521 126.578 34.0182 127.953 33.9609C129.328 33.9036 130.656 33.7812 131.938 33.5938L132.031 34.5C131.094 34.6667 130.115 34.7943 129.094 34.8828C128.073 34.9714 127.13 35.026 126.266 35.0469C125.401 35.0677 124.38 35.0833 123.203 35.0938C123.12 35.0938 123.031 35.0938 122.938 35.0938L122.766 34.0625H123.109Z" fill="#222222"/>
<path d="M110.562 29.7656C112.104 29.7656 113.315 29.7422 114.195 29.6953C115.076 29.6484 115.964 29.5521 116.859 29.4062L116.984 30.3906C116.068 30.5469 115.161 30.6484 114.266 30.6953C113.37 30.7422 112.135 30.7656 110.562 30.7656H109.516V29.7656H110.562ZM115.906 25.7031H110.734V30.375H109.516V24.7031H115.906V25.7031ZM115.641 28.1562H110.328V27.2031H115.641V28.1562ZM119.719 31.2656H118.5V24H119.719V31.2656ZM121.812 28.0625H119.172V27.0469H121.812V28.0625ZM119.719 35.2031H112.094V37.25H110.891V34.2656H118.5V32.9219H110.859V31.9375H119.719V35.2031ZM120.234 37.7344H110.891V36.75H120.234V37.7344Z" fill="#222222"/>
<path d="M102.234 31.5156H92.6406V30.5156H102.234V31.5156ZM103.734 36.1406H91.0156V35.1094H103.734V36.1406ZM97.9375 35.5312H96.7344V30.9531H97.9375V35.5312ZM102.094 26.1406H93.875V30.9844H92.6406V25.1406H102.094V26.1406Z" fill="#222222"/>
<path d="M78.5625 33.5312C79.5208 33.5312 80.4036 33.5052 81.2109 33.4531C82.0182 33.401 82.8646 33.3021 83.75 33.1562L83.8594 34.1562C82.9531 34.3125 82.0911 34.4193 81.2734 34.4766C80.4557 34.5339 79.5521 34.5625 78.5625 34.5625H77.6562V33.5312H78.5625ZM82.8594 30.375H78.8438V33.9219H77.6562V29.3594H81.6719V26.5469H77.625V25.5156H82.8594V30.375ZM89.0625 37.8906H87.8906V24H89.0625V37.8906ZM88.2031 30.5156H85.4844V29.5H88.2031V30.5156ZM85.8438 37.1719H84.7188V24.3125H85.8438V37.1719Z" fill="#222222"/>
<path d="M73.7656 26.5H64.7344V25.4844H73.7656V26.5ZM76.0156 35.8438H63.3594V34.8281H76.0156V35.8438ZM74.3125 27.0469C74.3125 27.7865 74.3047 28.4557 74.2891 29.0547C74.2734 29.6536 74.2266 30.3385 74.1484 31.1094C74.0703 31.8802 73.9531 32.7188 73.7969 33.625L72.5469 33.5C72.724 32.6146 72.8542 31.7839 72.9375 31.0078C73.0208 30.2318 73.0703 29.5443 73.0859 28.9453C73.1016 28.3464 73.1094 27.6562 73.1094 26.875V25.4844H74.3125V26.875V27.0469Z" fill="#222222"/>
<path d="M56.7812 36.7188C56.6042 36.7188 56.4375 36.6719 56.2812 36.5781C56.125 36.4844 56.0026 36.3594 55.9141 36.2031C55.8255 36.0469 55.7812 35.8802 55.7812 35.7031C55.7812 35.526 55.8255 35.3594 55.9141 35.2031C56.0026 35.0469 56.125 34.9245 56.2812 34.8359C56.4375 34.7474 56.6042 34.7031 56.7812 34.7031C56.9583 34.7031 57.125 34.7474 57.2812 34.8359C57.4375 34.9245 57.5599 35.0469 57.6484 35.2031C57.737 35.3594 57.7812 35.526 57.7812 35.7031C57.7812 35.8802 57.737 36.0469 57.6484 36.2031C57.5599 36.3594 57.4375 36.4844 57.2812 36.5781C57.125 36.6719 56.9583 36.7188 56.7812 36.7188Z" fill="#222222"/>
<path d="M52.2344 37.9219H51.0156V24H52.2344V37.9219ZM54.5625 30.5312H51.9531V29.5H54.5625V30.5312ZM43.1875 33.4062C44.5312 33.4062 45.6953 33.3698 46.6797 33.2969C47.6641 33.224 48.6615 33.0938 49.6719 32.9062L49.8281 33.9688C48.8073 34.1562 47.8021 34.2812 46.8125 34.3438C45.8229 34.4062 44.6146 34.4375 43.1875 34.4375H42.0938V33.4062H43.1875ZM48.5781 26.375H43.3125V33.875H42.0938V25.3594H48.5781V26.375Z" fill="#222222"/>
<path d="M39.1094 37.8906H37.8906V24H39.1094V37.8906ZM29.7656 33.9688H28.5625V25.375H29.7656V33.9688ZM29.6875 33.25C30.8229 33.25 31.9453 33.1979 33.0547 33.0938C34.1641 32.9896 35.2812 32.8177 36.4062 32.5781L36.5781 33.625C35.401 33.8646 34.2526 34.0391 33.1328 34.1484C32.013 34.2578 30.8646 34.3125 29.6875 34.3125H28.5625V33.25H29.6875Z" fill="#222222"/>
<path d="M24.6875 32.0781H23.4688V24H24.6875V32.0781ZM26.7812 28.6094H24.1562V27.5625H26.7812V28.6094ZM17.125 34.1719H23.4688V32.6875H24.6875V37.7031H15.9062V32.6875H17.125V34.1719ZM23.4688 36.7188V35.1406H17.125V36.7188H23.4688ZM22.1406 26.4531H13.8594V25.4375H22.1406V26.4531ZM18 27.0938C18.6667 27.0938 19.25 27.1927 19.75 27.3906C20.25 27.5885 20.6406 27.8724 20.9219 28.2422C21.2031 28.612 21.3438 29.0417 21.3438 29.5312C21.3438 30.0208 21.2031 30.4479 20.9219 30.8125C20.6406 31.1771 20.25 31.4609 19.75 31.6641C19.25 31.8672 18.6667 31.9688 18 31.9688C17.3333 31.9688 16.7474 31.8672 16.2422 31.6641C15.737 31.4609 15.3464 31.1771 15.0703 30.8125C14.7943 30.4479 14.6562 30.0208 14.6562 29.5312C14.6562 29.0417 14.7943 28.612 15.0703 28.2422C15.3464 27.8724 15.737 27.5885 16.2422 27.3906C16.7474 27.1927 17.3333 27.0938 18 27.0938ZM18 28.0469C17.5729 28.0365 17.1927 28.0938 16.8594 28.2188C16.526 28.3438 16.2708 28.5208 16.0938 28.75C15.9167 28.9792 15.8281 29.2396 15.8281 29.5312C15.8281 29.8229 15.9167 30.0833 16.0938 30.3125C16.2708 30.5417 16.526 30.7188 16.8594 30.8438C17.1927 30.9688 17.5729 31.0312 18 31.0312C18.4271 31.0312 18.8073 30.9688 19.1406 30.8438C19.474 30.7188 19.7318 30.5417 19.9141 30.3125C20.0964 30.0833 20.1875 29.8229 20.1875 29.5312C20.1875 29.2292 20.0938 28.9661 19.9062 28.7422C19.7188 28.5182 19.4609 28.3438 19.1328 28.2188C18.8047 28.0938 18.4271 28.0365 18 28.0469ZM18.6094 25.9844H17.3906V23.875H18.6094V25.9844Z" fill="#222222"/>
<path d="M11.0469 29.25H1.64062V24.5938H11.0469V29.25ZM2.84375 28.25H9.82812V25.5781H2.84375V28.25ZM12.6562 31.8906H0V30.8906H12.6562V31.8906ZM6.9375 31.3594H5.73438V28.9375H6.9375V31.3594ZM6.76562 33.25C6.76562 34.0417 6.52604 34.7526 6.04688 35.3828C5.56771 36.013 4.92448 36.5339 4.11719 36.9453C3.3099 37.3568 2.42188 37.6458 1.45312 37.8125L0.984375 36.8281C1.83854 36.7031 2.625 36.474 3.34375 36.1406C4.0625 35.8073 4.63542 35.3906 5.0625 34.8906C5.48958 34.3906 5.70312 33.8438 5.70312 33.25V32.7656H6.76562V33.25ZM6.9375 33.25C6.9375 33.8438 7.15365 34.3906 7.58594 34.8906C8.01823 35.3906 8.59635 35.8073 9.32031 36.1406C10.0443 36.474 10.8333 36.7031 11.6875 36.8281L11.1875 37.8125C10.2188 37.6458 9.33333 37.3568 8.53125 36.9453C7.72917 36.5339 7.09115 36.013 6.61719 35.3828C6.14323 34.7526 5.90625 34.0417 5.90625 33.25V32.7656H6.9375V33.25Z" fill="#222222"/>
<path d="M315.219 4.26562C315.219 5.21354 315.036 6.15365 314.672 7.08594C314.307 8.01823 313.82 8.84896 313.211 9.57812C312.602 10.3073 311.932 10.8542 311.203 11.2188L310.469 10.25C311.125 9.92708 311.74 9.44531 312.312 8.80469C312.885 8.16406 313.344 7.44271 313.688 6.64062C314.031 5.83854 314.203 5.04688 314.203 4.26562V1.96875H315.219V4.26562ZM315.438 4.26562C315.438 5.02604 315.607 5.78646 315.945 6.54688C316.284 7.30729 316.742 7.98177 317.32 8.57031C317.898 9.15885 318.526 9.60417 319.203 9.90625L318.516 10.875C317.766 10.5312 317.081 10.0208 316.461 9.34375C315.841 8.66667 315.352 7.88542 314.992 7C314.633 6.11458 314.453 5.20312 314.453 4.26562V1.96875H315.438V4.26562ZM318.75 2.45312H310.922V1.4375H318.75V2.45312ZM321.922 13.8906H320.688V0H321.922V13.8906Z" fill="#222222"/>
<path d="M307.391 13.8906H306.172V0H307.391V13.8906ZM309.719 6.75H307.109V5.73438H309.719V6.75ZM304.828 3.25H296.562V2.23438H304.828V3.25ZM300.766 4.40625C301.422 4.40625 302.008 4.54167 302.523 4.8125C303.039 5.08333 303.443 5.46094 303.734 5.94531C304.026 6.42969 304.172 6.97917 304.172 7.59375C304.172 8.20833 304.026 8.75781 303.734 9.24219C303.443 9.72656 303.039 10.1042 302.523 10.375C302.008 10.6458 301.422 10.7812 300.766 10.7812C300.109 10.7812 299.523 10.6458 299.008 10.375C298.492 10.1042 298.089 9.72656 297.797 9.24219C297.505 8.75781 297.359 8.20833 297.359 7.59375C297.359 6.97917 297.505 6.42969 297.797 5.94531C298.089 5.46094 298.492 5.08333 299.008 4.8125C299.523 4.54167 300.109 4.40625 300.766 4.40625ZM300.766 5.4375C300.339 5.4375 299.956 5.52865 299.617 5.71094C299.279 5.89323 299.013 6.14844 298.82 6.47656C298.628 6.80469 298.531 7.17708 298.531 7.59375C298.531 8.01042 298.628 8.38021 298.82 8.70312C299.013 9.02604 299.279 9.27865 299.617 9.46094C299.956 9.64323 300.339 9.73438 300.766 9.73438C301.193 9.73438 301.576 9.64323 301.914 9.46094C302.253 9.27865 302.518 9.02604 302.711 8.70312C302.904 8.38021 303 8.01042 303 7.59375C303 7.17708 302.904 6.80469 302.711 6.47656C302.518 6.14844 302.253 5.89323 301.914 5.71094C301.576 5.52865 301.193 5.4375 300.766 5.4375ZM301.359 2.70312H300.141V0.171875H301.359V2.70312Z" fill="#222222"/>
<path d="M287.172 7.34375H285.953V4.71875H287.172V7.34375ZM292.328 7.34375H291.109V4.71875H292.328V7.34375ZM295.469 7.89062H282.812V6.875H295.469V7.89062ZM289.141 8.95312C290.141 8.95312 290.997 9.04688 291.711 9.23438C292.424 9.42188 292.971 9.69792 293.352 10.0625C293.732 10.4271 293.922 10.875 293.922 11.4062C293.922 11.9271 293.732 12.3698 293.352 12.7344C292.971 13.099 292.424 13.3776 291.711 13.5703C290.997 13.763 290.141 13.8594 289.141 13.8594C288.141 13.8594 287.281 13.763 286.562 13.5703C285.844 13.3776 285.294 13.099 284.914 12.7344C284.534 12.3698 284.344 11.9271 284.344 11.4062C284.344 10.875 284.534 10.4271 284.914 10.0625C285.294 9.69792 285.844 9.42188 286.562 9.23438C287.281 9.04688 288.141 8.95312 289.141 8.95312ZM289.141 9.89062C288.401 9.89062 287.766 9.95052 287.234 10.0703C286.703 10.1901 286.297 10.3646 286.016 10.5938C285.734 10.8229 285.594 11.0938 285.594 11.4062C285.594 11.7188 285.734 11.987 286.016 12.2109C286.297 12.4349 286.703 12.6068 287.234 12.7266C287.766 12.8464 288.401 12.9062 289.141 12.9062C289.87 12.9062 290.503 12.8464 291.039 12.7266C291.576 12.6068 291.984 12.4349 292.266 12.2109C292.547 11.987 292.688 11.7188 292.688 11.4062C292.688 11.0938 292.547 10.8229 292.266 10.5938C291.984 10.3646 291.578 10.1901 291.047 10.0703C290.516 9.95052 289.88 9.89062 289.141 9.89062ZM289.141 0.265625C290.151 0.265625 291.023 0.367188 291.758 0.570312C292.492 0.773438 293.057 1.06771 293.453 1.45312C293.849 1.83854 294.047 2.30208 294.047 2.84375C294.047 3.375 293.849 3.83333 293.453 4.21875C293.057 4.60417 292.492 4.89844 291.758 5.10156C291.023 5.30469 290.151 5.40625 289.141 5.40625C288.13 5.40625 287.255 5.30469 286.516 5.10156C285.776 4.89844 285.208 4.60417 284.812 4.21875C284.417 3.83333 284.219 3.375 284.219 2.84375C284.219 2.30208 284.417 1.83854 284.812 1.45312C285.208 1.06771 285.776 0.773438 286.516 0.570312C287.255 0.367188 288.13 0.265625 289.141 0.265625ZM289.141 1.23438C288.391 1.23438 287.74 1.29948 287.188 1.42969C286.635 1.5599 286.214 1.74479 285.922 1.98438C285.63 2.22396 285.484 2.51042 285.484 2.84375C285.484 3.17708 285.63 3.46354 285.922 3.70312C286.214 3.94271 286.635 4.1276 287.188 4.25781C287.74 4.38802 288.391 4.45312 289.141 4.45312C289.891 4.45312 290.539 4.38802 291.086 4.25781C291.633 4.1276 292.055 3.94271 292.352 3.70312C292.648 3.46354 292.797 3.17708 292.797 2.84375C292.797 2.51042 292.648 2.22396 292.352 1.98438C292.055 1.74479 291.633 1.5599 291.086 1.42969C290.539 1.29948 289.891 1.23438 289.141 1.23438Z" fill="#222222"/>
<path d="M280.438 13.9219H279.203V0H280.438V13.9219ZM273.047 1.07812C273.734 1.07812 274.346 1.27865 274.883 1.67969C275.419 2.08073 275.839 2.64583 276.141 3.375C276.443 4.10417 276.594 4.95312 276.594 5.92188C276.594 6.89062 276.443 7.73958 276.141 8.46875C275.839 9.19792 275.419 9.76042 274.883 10.1562C274.346 10.5521 273.734 10.75 273.047 10.75C272.359 10.75 271.747 10.5521 271.211 10.1562C270.674 9.76042 270.255 9.19792 269.953 8.46875C269.651 7.73958 269.5 6.89062 269.5 5.92188C269.5 4.95312 269.651 4.10417 269.953 3.375C270.255 2.64583 270.674 2.08073 271.211 1.67969C271.747 1.27865 272.359 1.07812 273.047 1.07812ZM273.047 2.17188C272.589 2.17188 272.18 2.32812 271.82 2.64062C271.461 2.95312 271.182 3.39062 270.984 3.95312C270.786 4.51562 270.688 5.17188 270.688 5.92188C270.688 6.66146 270.786 7.3151 270.984 7.88281C271.182 8.45052 271.461 8.88802 271.82 9.19531C272.18 9.5026 272.589 9.65625 273.047 9.65625C273.505 9.65625 273.914 9.5026 274.273 9.19531C274.633 8.88802 274.911 8.45052 275.109 7.88281C275.307 7.3151 275.406 6.66146 275.406 5.92188C275.406 5.17188 275.307 4.51562 275.109 3.95312C274.911 3.39062 274.635 2.95312 274.281 2.64062C273.927 2.32812 273.516 2.17188 273.047 2.17188Z" fill="#222222"/>
<path d="M255.594 2.15625C255.594 3.03125 255.432 3.85156 255.109 4.61719C254.786 5.38281 254.339 6.04948 253.766 6.61719C253.193 7.1849 252.521 7.61979 251.75 7.92188L251.094 6.9375C251.781 6.67708 252.388 6.30729 252.914 5.82812C253.44 5.34896 253.849 4.79167 254.141 4.15625C254.432 3.52083 254.578 2.85417 254.578 2.15625V0.71875H255.594V2.15625ZM255.781 2.25C255.781 2.86458 255.93 3.46094 256.227 4.03906C256.523 4.61719 256.932 5.125 257.453 5.5625C257.974 6 258.568 6.33333 259.234 6.5625L258.562 7.53125C257.823 7.26042 257.167 6.86198 256.594 6.33594C256.021 5.8099 255.576 5.19531 255.258 4.49219C254.94 3.78906 254.781 3.04167 254.781 2.25V0.71875H255.781V2.25ZM262 8.45312H260.781V0H262V8.45312ZM264.094 4.65625H261.656V3.625H264.094V4.65625ZM257.547 8.8125C258.495 8.8125 259.312 8.91146 260 9.10938C260.688 9.30729 261.214 9.59375 261.578 9.96875C261.943 10.3438 262.125 10.7969 262.125 11.3281C262.125 11.8594 261.943 12.3151 261.578 12.6953C261.214 13.0755 260.69 13.3646 260.008 13.5625C259.326 13.7604 258.505 13.8594 257.547 13.8594C256.599 13.8594 255.779 13.7604 255.086 13.5625C254.393 13.3646 253.862 13.0755 253.492 12.6953C253.122 12.3151 252.938 11.8594 252.938 11.3281C252.938 10.7969 253.122 10.3438 253.492 9.96875C253.862 9.59375 254.393 9.30729 255.086 9.10938C255.779 8.91146 256.599 8.8125 257.547 8.8125ZM257.547 9.79688C256.859 9.79688 256.26 9.85677 255.75 9.97656C255.24 10.0964 254.849 10.2734 254.578 10.5078C254.307 10.7422 254.172 11.0156 254.172 11.3281C254.172 11.651 254.307 11.9297 254.578 12.1641C254.849 12.3984 255.237 12.5755 255.742 12.6953C256.247 12.8151 256.849 12.8802 257.547 12.8906C258.255 12.8802 258.862 12.8151 259.367 12.6953C259.872 12.5755 260.26 12.3984 260.531 12.1641C260.802 11.9297 260.938 11.651 260.938 11.3281C260.938 11.0052 260.802 10.7292 260.531 10.5C260.26 10.2708 259.87 10.0964 259.359 9.97656C258.849 9.85677 258.245 9.79688 257.547 9.79688Z" fill="#222222"/>
<path d="M248.766 13.9219H247.531V0H248.766V13.9219ZM241.375 1.07812C242.062 1.07812 242.674 1.27865 243.211 1.67969C243.747 2.08073 244.167 2.64583 244.469 3.375C244.771 4.10417 244.922 4.95312 244.922 5.92188C244.922 6.89062 244.771 7.73958 244.469 8.46875C244.167 9.19792 243.747 9.76042 243.211 10.1562C242.674 10.5521 242.062 10.75 241.375 10.75C240.688 10.75 240.076 10.5521 239.539 10.1562C239.003 9.76042 238.583 9.19792 238.281 8.46875C237.979 7.73958 237.828 6.89062 237.828 5.92188C237.828 4.95312 237.979 4.10417 238.281 3.375C238.583 2.64583 239.003 2.08073 239.539 1.67969C240.076 1.27865 240.688 1.07812 241.375 1.07812ZM241.375 2.17188C240.917 2.17188 240.508 2.32812 240.148 2.64062C239.789 2.95312 239.51 3.39062 239.312 3.95312C239.115 4.51562 239.016 5.17188 239.016 5.92188C239.016 6.66146 239.115 7.3151 239.312 7.88281C239.51 8.45052 239.789 8.88802 240.148 9.19531C240.508 9.5026 240.917 9.65625 241.375 9.65625C241.833 9.65625 242.242 9.5026 242.602 9.19531C242.961 8.88802 243.24 8.45052 243.438 7.88281C243.635 7.3151 243.734 6.66146 243.734 5.92188C243.734 5.17188 243.635 4.51562 243.438 3.95312C243.24 3.39062 242.964 2.95312 242.609 2.64062C242.255 2.32812 241.844 2.17188 241.375 2.17188Z" fill="#222222"/>
<path d="M225.25 9.4375C226.635 9.4375 227.789 9.40625 228.711 9.34375C229.633 9.28125 230.562 9.16146 231.5 8.98438L231.656 10C230.677 10.1875 229.716 10.3151 228.773 10.3828C227.831 10.4505 226.656 10.4844 225.25 10.4844H224.188V9.4375H225.25ZM230.562 2.35938H225.422V9.8125H224.188V1.32812H230.562V2.35938ZM235.016 13.9219H233.781V0H235.016V13.9219ZM234.297 6.07812H229.734V5.0625H234.297V6.07812Z" fill="#222222"/>
<path d="M216.875 5.20312H207.359V4.21875H216.875V5.20312ZM218.344 8.09375H205.625V7.09375H218.344V8.09375ZM208.578 4.71875H207.359V0.515625H208.578V4.71875ZM216.953 13.5469H207.281V12.5312H216.953V13.5469ZM208.5 12.8281H207.281V9.51562H208.5V12.8281Z" fill="#222222"/>
<path d="M198.531 2.04688C198.531 3.00521 198.26 3.90104 197.719 4.73438C197.177 5.56771 196.477 6.27083 195.617 6.84375C194.758 7.41667 193.854 7.8125 192.906 8.03125L192.344 7C193.167 6.83333 193.974 6.50781 194.766 6.02344C195.557 5.53906 196.203 4.94531 196.703 4.24219C197.203 3.53906 197.453 2.80729 197.453 2.04688V0.984375H198.531V2.04688ZM198.734 2.04688C198.734 2.79688 198.99 3.52604 199.5 4.23438C200.01 4.94271 200.664 5.54167 201.461 6.03125C202.258 6.52083 203.062 6.84375 203.875 7L203.312 8.03125C202.375 7.8125 201.477 7.41927 200.617 6.85156C199.758 6.28385 199.055 5.58073 198.508 4.74219C197.961 3.90365 197.688 3.00521 197.688 2.04688V0.984375H198.734V2.04688ZM204.531 12H191.812V10.9844H204.531V12Z" fill="#222222"/>
<path d="M189.438 13.9219H188.203V0H189.438V13.9219ZM180.016 4.85938H184.156V1.1875H185.359V10.5625H178.797V1.1875H180.016V4.85938ZM184.156 9.53125V5.84375H180.016V9.53125H184.156Z" fill="#222222"/>
<path d="M175.062 5.75H171.156V4.75H175.062V5.75ZM168.812 3.73438C168.812 4.73438 168.643 5.71615 168.305 6.67969C167.966 7.64323 167.503 8.4974 166.914 9.24219C166.326 9.98698 165.667 10.5573 164.938 10.9531L164.141 9.96875C164.818 9.63542 165.435 9.14062 165.992 8.48438C166.549 7.82812 166.99 7.08073 167.312 6.24219C167.635 5.40365 167.797 4.56771 167.797 3.73438V1.20312H168.812V3.73438ZM169.047 3.73438C169.047 4.55729 169.208 5.36979 169.531 6.17188C169.854 6.97396 170.292 7.6849 170.844 8.30469C171.396 8.92448 172.005 9.39062 172.672 9.70312L171.938 10.7031C171.198 10.3177 170.534 9.76823 169.945 9.05469C169.357 8.34115 168.893 7.52083 168.555 6.59375C168.216 5.66667 168.047 4.71354 168.047 3.73438V1.20312H169.047V3.73438ZM175.672 13.9219H174.453V0H175.672V13.9219Z" fill="#222222"/>
<path d="M157.172 10.4219H155.953V0.015625H157.172V10.4219ZM159.266 5.625H156.781V4.59375H159.266V5.625ZM154.625 2.71875H146.344V1.71875H154.625V2.71875ZM150.484 3.48438C151.141 3.48438 151.721 3.59115 152.227 3.80469C152.732 4.01823 153.125 4.32031 153.406 4.71094C153.688 5.10156 153.828 5.55729 153.828 6.07812C153.828 6.58854 153.688 7.03646 153.406 7.42188C153.125 7.80729 152.732 8.10677 152.227 8.32031C151.721 8.53385 151.141 8.64062 150.484 8.64062C149.828 8.64062 149.245 8.53385 148.734 8.32031C148.224 8.10677 147.831 7.80729 147.555 7.42188C147.279 7.03646 147.141 6.58854 147.141 6.07812C147.141 5.55729 147.279 5.10156 147.555 4.71094C147.831 4.32031 148.224 4.01823 148.734 3.80469C149.245 3.59115 149.828 3.48438 150.484 3.48438ZM150.484 4.45312C150.057 4.45312 149.677 4.51823 149.344 4.64844C149.01 4.77865 148.755 4.96875 148.578 5.21875C148.401 5.46875 148.312 5.75521 148.312 6.07812C148.312 6.40104 148.401 6.68229 148.578 6.92188C148.755 7.16146 149.01 7.34635 149.344 7.47656C149.677 7.60677 150.057 7.67188 150.484 7.67188C150.911 7.67188 151.292 7.60677 151.625 7.47656C151.958 7.34635 152.216 7.16146 152.398 6.92188C152.581 6.68229 152.672 6.40104 152.672 6.07812C152.672 5.75521 152.581 5.46875 152.398 5.21875C152.216 4.96875 151.958 4.77865 151.625 4.64844C151.292 4.51823 150.911 4.45312 150.484 4.45312ZM151.094 2.23438H149.875V0.015625H151.094V2.23438ZM157.812 13.5938H148.484V12.5625H157.812V13.5938ZM149.688 12.9844H148.484V9.59375H149.688V12.9844Z" fill="#222222"/>
<path d="M144.359 13.8906H143.188V0H144.359V13.8906ZM140.766 6.01562H138.047V5.01562H140.766V6.01562ZM141.547 13.1719H140.391V0.34375H141.547V13.1719ZM136.344 3.96875C136.344 4.96875 136.211 5.9349 135.945 6.86719C135.68 7.79948 135.305 8.63542 134.82 9.375C134.336 10.1146 133.76 10.6927 133.094 11.1094L132.312 10.1875C132.948 9.8125 133.497 9.29948 133.961 8.64844C134.424 7.9974 134.776 7.26562 135.016 6.45312C135.255 5.64062 135.375 4.8125 135.375 3.96875V2.15625H136.344V3.96875ZM136.562 3.96875C136.562 4.77083 136.68 5.55729 136.914 6.32812C137.148 7.09896 137.492 7.79167 137.945 8.40625C138.398 9.02083 138.938 9.51042 139.562 9.875L138.812 10.7812C138.146 10.375 137.576 9.82292 137.102 9.125C136.628 8.42708 136.266 7.63281 136.016 6.74219C135.766 5.85156 135.641 4.92708 135.641 3.96875V2.15625H136.562V3.96875ZM139.109 2.65625H132.703V1.64062H139.109V2.65625Z" fill="#222222"/>
<path d="M130.172 7.10938H128.938V0H130.172V7.10938ZM125.859 0.703125C125.859 1.84896 125.599 2.86719 125.078 3.75781C124.557 4.64844 123.812 5.39844 122.844 6.00781C121.875 6.61719 120.703 7.08854 119.328 7.42188L118.891 6.40625C120.099 6.125 121.125 5.73958 121.969 5.25C122.812 4.76042 123.451 4.17969 123.883 3.50781C124.315 2.83594 124.531 2.09375 124.531 1.28125V0.703125H125.859ZM125.078 1.71875H119.594V0.703125H125.078V1.71875ZM129.141 3.01562H125.359V2.03125H129.141V3.01562ZM129.062 5.65625H125.234V4.6875H129.062V5.65625ZM130.172 11.125H122.422V13.375H121.203V10.1875H128.938V8.73438H121.172V7.73438H130.172V11.125ZM130.641 13.7656H121.203V12.75H130.641V13.7656Z" fill="#222222"/>
<path d="M111.672 10.25H110.453V0H111.672V10.25ZM113.766 5.26562H111.281V4.23438H113.766V5.26562ZM112.312 13.5938H102.984V12.5625H112.312V13.5938ZM104.188 12.9688H102.984V9.1875H104.188V12.9688ZM104.719 0.984375C105.406 0.984375 106.029 1.13021 106.586 1.42188C107.143 1.71354 107.581 2.11719 107.898 2.63281C108.216 3.14844 108.375 3.73958 108.375 4.40625C108.375 5.0625 108.216 5.65104 107.898 6.17188C107.581 6.69271 107.143 7.09896 106.586 7.39062C106.029 7.68229 105.406 7.82812 104.719 7.82812C104.031 7.82812 103.411 7.68229 102.859 7.39062C102.307 7.09896 101.872 6.69271 101.555 6.17188C101.237 5.65104 101.078 5.0625 101.078 4.40625C101.078 3.73958 101.237 3.14844 101.555 2.63281C101.872 2.11719 102.307 1.71354 102.859 1.42188C103.411 1.13021 104.031 0.984375 104.719 0.984375ZM104.719 2.0625C104.271 2.0625 103.859 2.16146 103.484 2.35938C103.109 2.55729 102.815 2.83594 102.602 3.19531C102.388 3.55469 102.281 3.95833 102.281 4.40625C102.281 4.85417 102.388 5.25521 102.602 5.60938C102.815 5.96354 103.109 6.24219 103.484 6.44531C103.859 6.64844 104.271 6.75 104.719 6.75C105.188 6.75 105.607 6.64844 105.977 6.44531C106.346 6.24219 106.638 5.96354 106.852 5.60938C107.065 5.25521 107.172 4.85417 107.172 4.40625C107.172 3.94792 107.065 3.54167 106.852 3.1875C106.638 2.83333 106.346 2.55729 105.977 2.35938C105.607 2.16146 105.188 2.0625 104.719 2.0625Z" fill="#222222"/>
<path d="M99.6562 7.85938H86.9844V6.875H99.6562V7.85938ZM93.9062 7.29688H92.7188V4.64062H93.9062V7.29688ZM98.1719 5.25H88.5938V4.25H98.1719V5.25ZM98.0781 1.64062H89.7969V4.85938H88.5938V0.65625H98.0781V1.64062ZM93.3125 8.875C94.3021 8.875 95.1562 8.97135 95.875 9.16406C96.5938 9.35677 97.1432 9.64062 97.5234 10.0156C97.9036 10.3906 98.0938 10.8438 98.0938 11.375C98.0938 11.9062 97.9036 12.3594 97.5234 12.7344C97.1432 13.1094 96.5964 13.3932 95.8828 13.5859C95.1693 13.7786 94.3125 13.8802 93.3125 13.8906C92.3125 13.8802 91.4531 13.7786 90.7344 13.5859C90.0156 13.3932 89.4661 13.1094 89.0859 12.7344C88.7057 12.3594 88.5156 11.9062 88.5156 11.375C88.5156 10.8438 88.7057 10.3906 89.0859 10.0156C89.4661 9.64062 90.0156 9.35677 90.7344 9.16406C91.4531 8.97135 92.3125 8.875 93.3125 8.875ZM93.3125 9.84375C92.5729 9.84375 91.9375 9.90365 91.4062 10.0234C90.875 10.1432 90.4688 10.3177 90.1875 10.5469C89.9062 10.776 89.7656 11.0521 89.7656 11.375C89.7656 11.6979 89.9062 11.974 90.1875 12.2031C90.4688 12.4323 90.875 12.6068 91.4062 12.7266C91.9375 12.8464 92.5729 12.9062 93.3125 12.9062C94.0521 12.9062 94.6875 12.8464 95.2188 12.7266C95.75 12.6068 96.1562 12.4297 96.4375 12.1953C96.7188 11.9609 96.8594 11.6875 96.8594 11.375C96.8594 11.0521 96.7188 10.776 96.4375 10.5469C96.1562 10.3177 95.7474 10.1432 95.2109 10.0234C94.6745 9.90365 94.0417 9.84375 93.3125 9.84375Z" fill="#222222"/>
<path d="M83.5625 2.5H74.5312V1.48438H83.5625V2.5ZM85.8125 11.8438H73.1562V10.8281H85.8125V11.8438ZM84.1094 3.04688C84.1094 3.78646 84.1016 4.45573 84.0859 5.05469C84.0703 5.65365 84.0234 6.33854 83.9453 7.10938C83.8672 7.88021 83.75 8.71875 83.5938 9.625L82.3438 9.5C82.5208 8.61458 82.651 7.78385 82.7344 7.00781C82.8177 6.23177 82.8672 5.54427 82.8828 4.94531C82.8984 4.34635 82.9062 3.65625 82.9062 2.875V1.48438H84.1094V2.875V3.04688Z" fill="#222222"/>
<path d="M65.9688 3.48438H62.0312V2.45312H65.9688V3.48438ZM66 6.45312H62.0312V5.4375H66V6.45312ZM62.3438 7.70312H55.9688V1.21875H62.3438V7.70312ZM57.1875 6.71875H61.1406V2.23438H57.1875V6.71875ZM66.8281 10.1562H65.5938V0.015625H66.8281V10.1562ZM67.1406 13.5938H57.8438V12.5625H67.1406V13.5938ZM59.0781 13.0156H57.8438V9.25H59.0781V13.0156Z" fill="#222222"/>
<path d="M46.2188 3.73438C46.2188 4.76562 46.0417 5.76823 45.6875 6.74219C45.3333 7.71615 44.8516 8.57292 44.2422 9.3125C43.6328 10.0521 42.9479 10.6146 42.1875 11L41.4062 9.96875C42.0938 9.64583 42.7266 9.16146 43.3047 8.51562C43.8828 7.86979 44.3438 7.125 44.6875 6.28125C45.0312 5.4375 45.2031 4.58854 45.2031 3.73438V1.20312H46.2188V3.73438ZM46.4219 3.73438C46.4219 4.55729 46.5911 5.3724 46.9297 6.17969C47.2682 6.98698 47.7266 7.70573 48.3047 8.33594C48.8828 8.96615 49.5104 9.4375 50.1875 9.75L49.4375 10.7188C48.6979 10.3542 48.0182 9.8151 47.3984 9.10156C46.7786 8.38802 46.2891 7.5625 45.9297 6.625C45.5703 5.6875 45.3906 4.72396 45.3906 3.73438V1.20312H46.4219V3.73438ZM52.9375 13.9219H51.7031V0H52.9375V13.9219Z" fill="#222222"/>
<path d="M38.4062 13.8906H37.1875V0H38.4062V13.8906ZM40.7344 6.75H38.125V5.73438H40.7344V6.75ZM35.8438 3.25H27.5781V2.23438H35.8438V3.25ZM31.7812 4.40625C32.4375 4.40625 33.0234 4.54167 33.5391 4.8125C34.0547 5.08333 34.4583 5.46094 34.75 5.94531C35.0417 6.42969 35.1875 6.97917 35.1875 7.59375C35.1875 8.20833 35.0417 8.75781 34.75 9.24219C34.4583 9.72656 34.0547 10.1042 33.5391 10.375C33.0234 10.6458 32.4375 10.7812 31.7812 10.7812C31.125 10.7812 30.5391 10.6458 30.0234 10.375C29.5078 10.1042 29.1042 9.72656 28.8125 9.24219C28.5208 8.75781 28.375 8.20833 28.375 7.59375C28.375 6.97917 28.5208 6.42969 28.8125 5.94531C29.1042 5.46094 29.5078 5.08333 30.0234 4.8125C30.5391 4.54167 31.125 4.40625 31.7812 4.40625ZM31.7812 5.4375C31.3542 5.4375 30.9714 5.52865 30.6328 5.71094C30.2943 5.89323 30.0286 6.14844 29.8359 6.47656C29.6432 6.80469 29.5469 7.17708 29.5469 7.59375C29.5469 8.01042 29.6432 8.38021 29.8359 8.70312C30.0286 9.02604 30.2943 9.27865 30.6328 9.46094C30.9714 9.64323 31.3542 9.73438 31.7812 9.73438C32.2083 9.73438 32.5911 9.64323 32.9297 9.46094C33.2682 9.27865 33.5339 9.02604 33.7266 8.70312C33.9193 8.38021 34.0156 8.01042 34.0156 7.59375C34.0156 7.17708 33.9193 6.80469 33.7266 6.47656C33.5339 6.14844 33.2682 5.89323 32.9297 5.71094C32.5911 5.52865 32.2083 5.4375 31.7812 5.4375ZM32.375 2.70312H31.1562V0.171875H32.375V2.70312Z" fill="#222222"/>
<path d="M19.1094 10.3281H17.8906V7.34375H19.1094V10.3281ZM22.25 7.70312H14.9688V6.70312H22.25V7.70312ZM22.1875 2.26562H16.2031V7.07812H14.9688V1.26562H22.1875V2.26562ZM21.8906 4.9375H15.8281V3.96875H21.8906V4.9375ZM25.2188 13.9219H24V0H25.2188V13.9219ZM14.25 10.0625C16.1042 10.0521 17.7188 10.0182 19.0938 9.96094C20.4688 9.90365 21.7969 9.78125 23.0781 9.59375L23.1719 10.5C22.2344 10.6667 21.2552 10.7943 20.2344 10.8828C19.2135 10.9714 18.2708 11.026 17.4062 11.0469C16.5417 11.0677 15.5208 11.0833 14.3438 11.0938C14.2604 11.0938 14.1719 11.0938 14.0781 11.0938L13.9062 10.0625H14.25Z" fill="#222222"/>
<path d="M1.70312 5.76562C3.24479 5.76562 4.45573 5.74219 5.33594 5.69531C6.21615 5.64844 7.10417 5.55208 8 5.40625L8.125 6.39062C7.20833 6.54688 6.30208 6.64844 5.40625 6.69531C4.51042 6.74219 3.27604 6.76562 1.70312 6.76562H0.65625V5.76562H1.70312ZM7.04688 1.70312H1.875V6.375H0.65625V0.703125H7.04688V1.70312ZM6.78125 4.15625H1.46875V3.20312H6.78125V4.15625ZM10.8594 7.26562H9.64062V0H10.8594V7.26562ZM12.9531 4.0625H10.3125V3.04688H12.9531V4.0625ZM10.8594 11.2031H3.23438V13.25H2.03125V10.2656H9.64062V8.92188H2V7.9375H10.8594V11.2031ZM11.375 13.7344H2.03125V12.75H11.375V13.7344Z" fill="#222222"/>
</svg>
