<svg width="327" height="15" viewBox="0 0 327 15" fill="none" xmlns="http://www.w3.org/2000/svg">
<path d="M325.891 13.5605C325.714 13.5605 325.547 13.5137 325.391 13.4199C325.234 13.3262 325.112 13.2012 325.023 13.0449C324.935 12.8887 324.891 12.722 324.891 12.5449C324.891 12.3678 324.935 12.2012 325.023 12.0449C325.112 11.8887 325.234 11.7663 325.391 11.6777C325.547 11.5892 325.714 11.5449 325.891 11.5449C326.068 11.5449 326.234 11.5892 326.391 11.6777C326.547 11.7663 326.669 11.8887 326.758 12.0449C326.846 12.2012 326.891 12.3678 326.891 12.5449C326.891 12.722 326.846 12.8887 326.758 13.0449C326.669 13.2012 326.547 13.3262 326.391 13.4199C326.234 13.5137 326.068 13.5605 325.891 13.5605Z" fill="#878787"/>
<path d="M321.344 14.7637H320.125V0.841797H321.344V14.7637ZM323.672 7.37305H321.062V6.3418H323.672V7.37305ZM312.297 10.248C313.641 10.248 314.805 10.2116 315.789 10.1387C316.773 10.0658 317.771 9.93555 318.781 9.74805L318.938 10.8105C317.917 10.998 316.911 11.123 315.922 11.1855C314.932 11.248 313.724 11.2793 312.297 11.2793H311.203V10.248H312.297ZM317.688 3.2168H312.422V10.7168H311.203V2.20117H317.688V3.2168Z" fill="#878787"/>
<path d="M308.219 14.7324H307V0.841797H308.219V14.7324ZM298.875 10.8105H297.672V2.2168H298.875V10.8105ZM298.797 10.0918C299.932 10.0918 301.055 10.0397 302.164 9.93555C303.273 9.83138 304.391 9.6595 305.516 9.41992L305.688 10.4668C304.51 10.7064 303.362 10.8809 302.242 10.9902C301.122 11.0996 299.974 11.1543 298.797 11.1543H297.672V10.0918H298.797Z" fill="#878787"/>
<path d="M285.766 10.8105H292.703V9.18555H293.938V14.5449H284.547V9.18555H285.766V10.8105ZM292.703 13.5605V11.7793H285.766V13.5605H292.703ZM295.594 8.20117H282.938V7.18555H295.594V8.20117ZM289.703 1.6543C289.703 2.41471 289.44 3.11523 288.914 3.75586C288.388 4.39648 287.698 4.92773 286.844 5.34961C285.99 5.77148 285.083 6.05534 284.125 6.20117L283.656 5.2168C284.49 5.10221 285.292 4.87305 286.062 4.5293C286.833 4.18555 287.456 3.76107 287.93 3.25586C288.404 2.75065 288.641 2.2168 288.641 1.6543V0.998047H289.703V1.6543ZM289.906 1.6543C289.906 2.20638 290.146 2.73503 290.625 3.24023C291.104 3.74544 291.729 4.17513 292.5 4.5293C293.271 4.88346 294.062 5.11263 294.875 5.2168L294.422 6.20117C293.464 6.05534 292.557 5.76888 291.703 5.3418C290.849 4.91471 290.159 4.38086 289.633 3.74023C289.107 3.09961 288.844 2.4043 288.844 1.6543V0.998047H289.906V1.6543Z" fill="#878787"/>
<path d="M275.266 1.87305C275.266 2.9668 275.06 3.97201 274.648 4.88867C274.237 5.80534 273.633 6.62044 272.836 7.33398C272.039 8.04753 271.057 8.6543 269.891 9.1543L269.25 8.24805C270.281 7.82096 271.154 7.31055 271.867 6.7168C272.581 6.12305 273.12 5.45117 273.484 4.70117C273.849 3.95117 274.031 3.13867 274.031 2.26367V1.87305H275.266ZM274.516 2.88867H269.844V1.87305H274.516V2.88867ZM280.906 8.88867H279.734V0.857422H280.906V8.88867ZM277.25 5.82617H273.844V4.81055H277.25V5.82617ZM278.109 8.66992H276.938V1.1543H278.109V8.66992ZM273.719 10.2949C273.719 10.8991 273.594 11.4902 273.344 12.0684C273.094 12.6465 272.729 13.1647 272.25 13.623C271.771 14.0814 271.208 14.4355 270.562 14.6855L269.938 13.7793C270.51 13.571 271.01 13.2793 271.438 12.9043C271.865 12.5293 272.195 12.1126 272.43 11.6543C272.664 11.196 272.781 10.7428 272.781 10.2949V9.35742H273.719V10.2949ZM273.953 10.2949C273.953 10.7741 274.047 11.2454 274.234 11.709C274.422 12.1725 274.708 12.5918 275.094 12.9668C275.479 13.3418 275.943 13.6439 276.484 13.873L275.953 14.8105C275.307 14.5501 274.768 14.1855 274.336 13.7168C273.904 13.248 273.581 12.7168 273.367 12.123C273.154 11.5293 273.047 10.9199 273.047 10.2949V9.35742H273.953V10.2949ZM278.844 10.2949C278.844 10.8574 278.734 11.4329 278.516 12.0215C278.297 12.61 277.971 13.1543 277.539 13.6543C277.107 14.1543 276.578 14.5397 275.953 14.8105L275.406 13.873C275.938 13.623 276.393 13.2975 276.773 12.8965C277.154 12.4954 277.443 12.0632 277.641 11.5996C277.839 11.1361 277.938 10.7012 277.938 10.2949V9.35742H278.844V10.2949ZM279.125 10.2949C279.125 10.7741 279.24 11.2428 279.469 11.7012C279.698 12.1595 280.029 12.571 280.461 12.9355C280.893 13.3001 281.396 13.5814 281.969 13.7793L281.359 14.6855C280.703 14.446 280.133 14.1048 279.648 13.6621C279.164 13.2194 278.797 12.7064 278.547 12.123C278.297 11.5397 278.172 10.9303 278.172 10.2949V9.35742H279.125V10.2949Z" fill="#878787"/>
<path d="M263.562 7.85742H256.422V6.8418H263.562V7.85742ZM260.516 10.873H259.297V7.63867H260.516V10.873ZM263.5 3.16992H257.625V7.2168H256.422V2.16992H263.5V3.16992ZM266.672 14.7637H265.453V0.841797H266.672V14.7637ZM255.359 10.6855C257.078 10.6855 258.701 10.6595 260.227 10.6074C261.753 10.5553 263.188 10.4512 264.531 10.2949L264.625 11.2168C263.667 11.3522 262.667 11.4564 261.625 11.5293C260.583 11.6022 259.578 11.6517 258.609 11.6777C257.641 11.7038 256.615 11.7168 255.531 11.7168L255.359 10.6855Z" fill="#878787"/>
<path d="M248.891 14.7637H247.656V0.841797H248.891V14.7637ZM241.5 1.91992C242.188 1.91992 242.799 2.12044 243.336 2.52148C243.872 2.92253 244.292 3.48763 244.594 4.2168C244.896 4.94596 245.047 5.79492 245.047 6.76367C245.047 7.73242 244.896 8.58138 244.594 9.31055C244.292 10.0397 243.872 10.6022 243.336 10.998C242.799 11.3939 242.188 11.5918 241.5 11.5918C240.812 11.5918 240.201 11.3939 239.664 10.998C239.128 10.6022 238.708 10.0397 238.406 9.31055C238.104 8.58138 237.953 7.73242 237.953 6.76367C237.953 5.79492 238.104 4.94596 238.406 4.2168C238.708 3.48763 239.128 2.92253 239.664 2.52148C240.201 2.12044 240.812 1.91992 241.5 1.91992ZM241.5 3.01367C241.042 3.01367 240.633 3.16992 240.273 3.48242C239.914 3.79492 239.635 4.23242 239.438 4.79492C239.24 5.35742 239.141 6.01367 239.141 6.76367C239.141 7.50326 239.24 8.1569 239.438 8.72461C239.635 9.29232 239.914 9.72982 240.273 10.0371C240.633 10.3444 241.042 10.498 241.5 10.498C241.958 10.498 242.367 10.3444 242.727 10.0371C243.086 9.72982 243.365 9.29232 243.562 8.72461C243.76 8.1569 243.859 7.50326 243.859 6.76367C243.859 6.01367 243.76 5.35742 243.562 4.79492C243.365 4.23242 243.089 3.79492 242.734 3.48242C242.38 3.16992 241.969 3.01367 241.5 3.01367Z" fill="#878787"/>
<path d="M226.438 10.8105H233.375V9.18555H234.609V14.5449H225.219V9.18555H226.438V10.8105ZM233.375 13.5605V11.7793H226.438V13.5605H233.375ZM236.266 8.20117H223.609V7.18555H236.266V8.20117ZM230.375 1.6543C230.375 2.41471 230.112 3.11523 229.586 3.75586C229.06 4.39648 228.37 4.92773 227.516 5.34961C226.661 5.77148 225.755 6.05534 224.797 6.20117L224.328 5.2168C225.161 5.10221 225.964 4.87305 226.734 4.5293C227.505 4.18555 228.128 3.76107 228.602 3.25586C229.076 2.75065 229.312 2.2168 229.312 1.6543V0.998047H230.375V1.6543ZM230.578 1.6543C230.578 2.20638 230.818 2.73503 231.297 3.24023C231.776 3.74544 232.401 4.17513 233.172 4.5293C233.943 4.88346 234.734 5.11263 235.547 5.2168L235.094 6.20117C234.135 6.05534 233.229 5.76888 232.375 5.3418C231.521 4.91471 230.831 4.38086 230.305 3.74023C229.779 3.09961 229.516 2.4043 229.516 1.6543V0.998047H230.578V1.6543Z" fill="#878787"/>
<path d="M222.5 12.9512H209.781V11.9199H222.5V12.9512ZM216.703 12.2168H215.5V8.2793H216.703V12.2168ZM220.922 8.5293H211.281V2.01367H220.922V8.5293ZM212.484 7.54492H219.734V2.99805H212.484V7.54492Z" fill="#878787"/>
<path d="M196.719 3.82617C196.719 4.64909 196.552 5.42773 196.219 6.16211C195.885 6.89648 195.422 7.53451 194.828 8.07617C194.234 8.61784 193.552 9.0293 192.781 9.31055L192.141 8.32617C192.828 8.07617 193.443 7.72201 193.984 7.26367C194.526 6.80534 194.948 6.2793 195.25 5.68555C195.552 5.0918 195.703 4.47201 195.703 3.82617V2.37305H196.719V3.82617ZM196.938 3.82617C196.938 4.44076 197.089 5.0293 197.391 5.5918C197.693 6.1543 198.115 6.64909 198.656 7.07617C199.198 7.50326 199.812 7.82617 200.5 8.04492L199.875 9.0293C199.104 8.76888 198.419 8.38086 197.82 7.86523C197.221 7.34961 196.755 6.74544 196.422 6.05273C196.089 5.36003 195.922 4.61784 195.922 3.82617V2.37305H196.938V3.82617ZM200.141 3.01367H192.453V2.01367H200.141V3.01367ZM203.406 11.0449H202.188V0.857422H203.406V11.0449ZM203.844 14.4355H194.438V13.4043H203.844V14.4355ZM195.656 13.8574H194.438V10.0762H195.656V13.8574Z" fill="#878787"/>
<path d="M181.828 1.91992C182.516 1.91992 183.122 2.12044 183.648 2.52148C184.174 2.92253 184.589 3.48763 184.891 4.2168C185.193 4.94596 185.344 5.79492 185.344 6.76367C185.344 7.73242 185.193 8.58138 184.891 9.31055C184.589 10.0397 184.172 10.6022 183.641 10.998C183.109 11.3939 182.505 11.5918 181.828 11.5918C181.151 11.5918 180.547 11.3939 180.016 10.998C179.484 10.6022 179.07 10.0397 178.773 9.31055C178.477 8.58138 178.328 7.73242 178.328 6.76367C178.328 5.79492 178.477 4.94596 178.773 4.2168C179.07 3.48763 179.484 2.92253 180.016 2.52148C180.547 2.12044 181.151 1.91992 181.828 1.91992ZM181.828 3.01367C181.37 3.01367 180.964 3.16992 180.609 3.48242C180.255 3.79492 179.979 4.23242 179.781 4.79492C179.583 5.35742 179.484 6.01367 179.484 6.76367C179.484 7.50326 179.583 8.1569 179.781 8.72461C179.979 9.29232 180.258 9.72982 180.617 10.0371C180.977 10.3444 181.38 10.498 181.828 10.498C182.286 10.498 182.693 10.3444 183.047 10.0371C183.401 9.72982 183.674 9.29232 183.867 8.72461C184.06 8.1569 184.156 7.50326 184.156 6.76367C184.156 6.01367 184.06 5.35742 183.867 4.79492C183.674 4.23242 183.401 3.79492 183.047 3.48242C182.693 3.16992 182.286 3.01367 181.828 3.01367ZM188.859 14.7324H187.641V0.841797H188.859V14.7324ZM191.188 7.45117H188.578V6.38867H191.188V7.45117Z" fill="#878787"/>
<path d="M177.281 7.41992H174.719V6.38867H177.281V7.41992ZM175.031 14.7324H173.812V0.841797H175.031V14.7324ZM166.078 10.8105H164.859V2.2168H166.078V10.8105ZM165.969 10.1699C167.073 10.1699 168.156 10.1204 169.219 10.0215C170.281 9.92253 171.365 9.75846 172.469 9.5293L172.625 10.5762C171.5 10.8053 170.396 10.9668 169.312 11.0605C168.229 11.1543 167.115 11.2012 165.969 11.2012H164.859V10.1699H165.969Z" fill="#878787"/>
<path d="M153.359 10.623H152.156V8.20117H153.359V10.623ZM159.094 8.60742H146.438V7.60742H159.094V8.60742ZM157.531 14.7324H156.297V11.2637H147.844V10.2793H157.531V14.7324ZM152.766 1.18554C153.766 1.17512 154.635 1.27669 155.375 1.49023C156.115 1.70377 156.682 2.01106 157.078 2.4121C157.474 2.81315 157.672 3.29492 157.672 3.85742C157.672 4.4095 157.474 4.88606 157.078 5.2871C156.682 5.68815 156.115 5.99283 155.375 6.20117C154.635 6.4095 153.766 6.51367 152.766 6.51367C151.766 6.51367 150.896 6.4095 150.156 6.20117C149.417 5.99283 148.846 5.68815 148.445 5.2871C148.044 4.88606 147.844 4.4095 147.844 3.85742C147.844 3.29492 148.044 2.81315 148.445 2.4121C148.846 2.01106 149.417 1.70377 150.156 1.49023C150.896 1.27669 151.766 1.17512 152.766 1.18554ZM152.766 2.16992C152.026 2.1595 151.38 2.222 150.828 2.35742C150.276 2.49283 149.852 2.69075 149.555 2.95117C149.258 3.21158 149.109 3.51367 149.109 3.85742C149.109 4.20117 149.258 4.50065 149.555 4.75585C149.852 5.01106 150.273 5.20637 150.82 5.34179C151.367 5.47721 152.016 5.54492 152.766 5.54492C153.505 5.54492 154.151 5.47721 154.703 5.34179C155.255 5.20637 155.68 5.01106 155.977 4.75585C156.273 4.50065 156.422 4.20117 156.422 3.85742C156.422 3.51367 156.273 3.21158 155.977 2.95117C155.68 2.69075 155.255 2.49283 154.703 2.35742C154.151 2.222 153.505 2.1595 152.766 2.16992Z" fill="#878787"/>
<path d="M134.375 10.2793C135.76 10.2793 136.914 10.248 137.836 10.1855C138.758 10.123 139.688 10.0033 140.625 9.82617L140.781 10.8418C139.802 11.0293 138.841 11.1569 137.898 11.2246C136.956 11.2923 135.781 11.3262 134.375 11.3262H133.312V10.2793H134.375ZM139.688 3.20117H134.547V10.6543H133.312V2.16992H139.688V3.20117ZM144.141 14.7637H142.906V0.841797H144.141V14.7637ZM143.422 6.91992H138.859V5.9043H143.422V6.91992Z" fill="#878787"/>
<path d="M125.422 4.32617H121.484V3.29492H125.422V4.32617ZM125.453 7.29492H121.484V6.2793H125.453V7.29492ZM121.797 8.54492H115.422V2.06055H121.797V8.54492ZM116.641 7.56055H120.594V3.07617H116.641V7.56055ZM126.281 10.998H125.047V0.857422H126.281V10.998ZM126.594 14.4355H117.297V13.4043H126.594V14.4355ZM118.531 13.8574H117.297V10.0918H118.531V13.8574Z" fill="#878787"/>
<path d="M105.672 4.57617C105.672 5.60742 105.495 6.61003 105.141 7.58398C104.786 8.55794 104.305 9.41471 103.695 10.1543C103.086 10.8939 102.401 11.4564 101.641 11.8418L100.859 10.8105C101.547 10.4876 102.18 10.0033 102.758 9.35742C103.336 8.71159 103.797 7.9668 104.141 7.12305C104.484 6.2793 104.656 5.43034 104.656 4.57617V2.04492H105.672V4.57617ZM105.875 4.57617C105.875 5.39909 106.044 6.21419 106.383 7.02148C106.721 7.82878 107.18 8.54753 107.758 9.17773C108.336 9.80794 108.964 10.2793 109.641 10.5918L108.891 11.5605C108.151 11.196 107.471 10.6569 106.852 9.94336C106.232 9.22982 105.742 8.4043 105.383 7.4668C105.023 6.5293 104.844 5.56576 104.844 4.57617V2.04492H105.875V4.57617ZM112.391 14.7637H111.156V0.841797H112.391V14.7637Z" fill="#878787"/>
<path d="M93.8281 2.81055C93.8281 3.60221 93.5677 4.33138 93.0469 4.99805C92.526 5.66471 91.849 6.2194 91.0156 6.66211C90.1823 7.10482 89.2917 7.40951 88.3438 7.57617L87.8594 6.60742C88.6719 6.48242 89.4557 6.23503 90.2109 5.86523C90.9661 5.49544 91.5781 5.04232 92.0469 4.50586C92.5156 3.9694 92.75 3.4043 92.75 2.81055V2.2168H93.8281V2.81055ZM94.125 2.81055C94.125 3.4043 94.3594 3.9694 94.8281 4.50586C95.2969 5.04232 95.9089 5.49544 96.6641 5.86523C97.4193 6.23503 98.2031 6.48242 99.0156 6.60742L98.5625 7.57617C97.6042 7.40951 96.7057 7.10742 95.8672 6.66992C95.0286 6.23242 94.3516 5.67773 93.8359 5.00586C93.3203 4.33398 93.0625 3.60221 93.0625 2.81055V2.2168H94.125V2.81055ZM94.0156 14.7324H92.8125V9.41992H94.0156V14.7324ZM99.7656 9.7793H87.1094V8.76367H99.7656V9.7793ZM98.5625 2.7168H88.2969V1.7168H98.5625V2.7168Z" fill="#878787"/>
<path d="M84.7812 14.7637H83.5625V0.841797H84.7812V14.7637ZM83.9062 5.04492H80.7812V4.01367H83.9062V5.04492ZM74.8438 10.4668C76.0104 10.4668 77.0625 10.4382 78 10.3809C78.9375 10.3236 79.9219 10.2168 80.9531 10.0605L81.0625 11.0918C80.0104 11.248 79.0104 11.3574 78.0625 11.4199C77.1146 11.4824 76.0417 11.5137 74.8438 11.5137H73.8125V10.4668H74.8438ZM79.875 7.04492H75.0312V10.7324H73.8125V6.04492H78.6719V3.12305H73.7656V2.10742H79.875V7.04492ZM83.8125 8.8418H80.6719V7.81055H83.8125V8.8418Z" fill="#878787"/>
<path d="M70.3125 7.91992H69.0938V0.841797H70.3125V7.91992ZM72.4062 4.88867H69.7656V3.85742H72.4062V4.88867ZM70.3125 11.9668H62.6875V14.0918H61.4844V11.0293H69.0938V9.56055H61.4531V8.57617H70.3125V11.9668ZM70.8281 14.5449H61.4844V13.5605H70.8281V14.5449ZM63.3281 1.35742C64.026 1.35742 64.6484 1.48763 65.1953 1.74805C65.7422 2.00846 66.1693 2.37305 66.4766 2.8418C66.7839 3.31055 66.9375 3.8418 66.9375 4.43555C66.9375 5.0293 66.7839 5.56315 66.4766 6.03711C66.1693 6.51107 65.7422 6.87826 65.1953 7.13867C64.6484 7.39909 64.026 7.5293 63.3281 7.5293C62.6406 7.5293 62.0234 7.39648 61.4766 7.13086C60.9297 6.86523 60.5 6.49805 60.1875 6.0293C59.875 5.56055 59.7188 5.0293 59.7188 4.43555C59.7188 3.8418 59.875 3.31055 60.1875 2.8418C60.5 2.37305 60.9297 2.00846 61.4766 1.74805C62.0234 1.48763 62.6406 1.35742 63.3281 1.35742ZM63.3281 2.38867C62.8698 2.37826 62.4583 2.46159 62.0938 2.63867C61.7292 2.81576 61.4427 3.06055 61.2344 3.37305C61.026 3.68555 60.9219 4.03971 60.9219 4.43555C60.9219 4.83138 61.026 5.18815 61.2344 5.50586C61.4427 5.82357 61.7292 6.07357 62.0938 6.25586C62.4583 6.43815 62.8698 6.5293 63.3281 6.5293C63.7865 6.5293 64.1979 6.43815 64.5625 6.25586C64.9271 6.07357 65.2135 5.82357 65.4219 5.50586C65.6302 5.18815 65.7344 4.83138 65.7344 4.43555C65.7344 4.03971 65.6302 3.68555 65.4219 3.37305C65.2135 3.06055 64.9271 2.81576 64.5625 2.63867C64.1979 2.46159 63.7865 2.37826 63.3281 2.38867Z" fill="#878787"/>
<path d="M53.5 14.7324H52.3281V0.841797H53.5V14.7324ZM49.7656 7.54492H46.2031V6.54492H49.7656V7.54492ZM50.5781 14.0293H49.4062V1.2168H50.5781V14.0293ZM47.6094 2.62305C47.6094 3.86263 47.4271 5.03711 47.0625 6.14648C46.6979 7.25586 46.125 8.28451 45.3438 9.23242C44.5625 10.1803 43.5625 11.0137 42.3438 11.7324L41.625 10.8418C42.7083 10.196 43.6068 9.46159 44.3203 8.63867C45.0339 7.81576 45.5625 6.91732 45.9062 5.94336C46.25 4.9694 46.4219 3.93555 46.4219 2.8418V2.62305H47.6094ZM46.8906 3.63867H42.2188V2.62305H46.8906V3.63867Z" fill="#878787"/>
<path d="M36.1406 7.2793H33.4688V6.26367H36.1406V7.2793ZM39.6875 14.7324H38.5V0.841797H39.6875V14.7324ZM36.8906 14.0293H35.7188V1.13867H36.8906V14.0293ZM30.9375 2.01367C31.5417 2.01367 32.0677 2.20898 32.5156 2.59961C32.9635 2.99023 33.3125 3.55013 33.5625 4.2793C33.8125 5.00846 33.9375 5.86263 33.9375 6.8418C33.9375 7.81055 33.8125 8.65951 33.5625 9.38867C33.3125 10.1178 32.9635 10.6803 32.5156 11.0762C32.0677 11.472 31.5417 11.6699 30.9375 11.6699C30.3438 11.6699 29.8203 11.472 29.3672 11.0762C28.9141 10.6803 28.5651 10.1178 28.3203 9.38867C28.0755 8.65951 27.9531 7.81055 27.9531 6.8418C27.9531 5.86263 28.0755 5.00846 28.3203 4.2793C28.5651 3.55013 28.9141 2.99023 29.3672 2.59961C29.8203 2.20898 30.3438 2.01367 30.9375 2.01367ZM30.9375 3.16992C30.5625 3.16992 30.237 3.31836 29.9609 3.61523C29.6849 3.91211 29.474 4.33659 29.3281 4.88867C29.1823 5.44076 29.1094 6.0918 29.1094 6.8418C29.1094 7.58138 29.1823 8.22721 29.3281 8.7793C29.474 9.33138 29.6875 9.75586 29.9688 10.0527C30.25 10.3496 30.5729 10.498 30.9375 10.498C31.3125 10.498 31.638 10.3496 31.9141 10.0527C32.1901 9.75586 32.4036 9.33138 32.5547 8.7793C32.7057 8.22721 32.7812 7.58138 32.7812 6.8418C32.7812 6.0918 32.7057 5.44076 32.5547 4.88867C32.4036 4.33659 32.1901 3.91211 31.9141 3.61523C31.638 3.31836 31.3125 3.16992 30.9375 3.16992Z" fill="#878787"/>
<path d="M25.3438 14.7324H24.125V0.841797H25.3438V14.7324ZM14.0312 10.9355C15.8646 10.9355 17.5182 10.9121 18.9922 10.8652C20.4661 10.8184 21.8698 10.7116 23.2031 10.5449L23.2969 11.4512C22.3698 11.6074 21.4036 11.7246 20.3984 11.8027C19.3932 11.8809 18.4245 11.9303 17.4922 11.9512C16.5599 11.972 15.5833 11.9824 14.5625 11.9824H14.2188L14.0312 10.9355ZM22.8438 3.73242H14.3281V2.73242H22.8438V3.73242ZM18.5938 4.49805C19.25 4.49805 19.8307 4.60482 20.3359 4.81836C20.8411 5.0319 21.2344 5.33659 21.5156 5.73242C21.7969 6.12826 21.9375 6.5918 21.9375 7.12305C21.9375 7.63346 21.7969 8.08659 21.5156 8.48242C21.2344 8.87825 20.8411 9.18294 20.3359 9.39648C19.8307 9.61003 19.25 9.7168 18.5938 9.7168C17.9479 9.7168 17.3724 9.61003 16.8672 9.39648C16.362 9.18294 15.9714 8.87825 15.6953 8.48242C15.4193 8.08659 15.2812 7.63346 15.2812 7.12305C15.2812 6.5918 15.4193 6.12826 15.6953 5.73242C15.9714 5.33659 16.362 5.0319 16.8672 4.81836C17.3724 4.60482 17.9479 4.49805 18.5938 4.49805ZM18.5938 5.4668C18.1771 5.4668 17.8021 5.53451 17.4688 5.66992C17.1354 5.80534 16.8776 6.00065 16.6953 6.25586C16.513 6.51107 16.4219 6.80013 16.4219 7.12305C16.4219 7.43555 16.513 7.7168 16.6953 7.9668C16.8776 8.2168 17.1354 8.41211 17.4688 8.55273C17.8021 8.69336 18.1771 8.76367 18.5938 8.76367C19.0208 8.76367 19.3984 8.69336 19.7266 8.55273C20.0547 8.41211 20.3099 8.2168 20.4922 7.9668C20.6745 7.7168 20.7656 7.43555 20.7656 7.12305C20.7656 6.80013 20.6745 6.51107 20.4922 6.25586C20.3099 6.00065 20.0547 5.80534 19.7266 5.66992C19.3984 5.53451 19.0208 5.4668 18.5938 5.4668ZM19.2188 3.37305H17.9688V0.998047H19.2188V3.37305Z" fill="#878787"/>
<path d="M11.6406 14.7637H10.4062V0.841797H11.6406V14.7637ZM10.7812 6.91992H7.35938V5.9043H10.7812V6.91992ZM4.70312 4.9668C4.70312 5.92513 4.52604 6.87305 4.17188 7.81055C3.81771 8.74805 3.34115 9.58138 2.74219 10.3105C2.14323 11.0397 1.47917 11.597 0.75 11.9824L0 11.0293C0.666667 10.696 1.28385 10.209 1.85156 9.56836C2.41927 8.92773 2.86979 8.20117 3.20312 7.38867C3.53646 6.57617 3.70312 5.76888 3.70312 4.9668V2.81055H4.70312V4.9668ZM4.9375 4.9668C4.9375 5.7168 5.10417 6.47982 5.4375 7.25586C5.77083 8.0319 6.21875 8.72721 6.78125 9.3418C7.34375 9.95638 7.95833 10.4147 8.625 10.7168L7.89062 11.7012C7.16146 11.3366 6.4974 10.8027 5.89844 10.0996C5.29948 9.39648 4.82552 8.5944 4.47656 7.69336C4.1276 6.79232 3.95312 5.88346 3.95312 4.9668V2.81055H4.9375V4.9668ZM8.125 3.29492H0.53125V2.2793H8.125V3.29492Z" fill="#878787"/>
</svg>
