<svg width="199" height="48" viewBox="0 0 199 48" fill="none" xmlns="http://www.w3.org/2000/svg">
<path d="M197.051 46.1719C196.758 46.1719 196.484 46.097 196.23 45.9473C195.977 45.791 195.778 45.5892 195.635 45.3418C195.492 45.0879 195.42 44.8145 195.42 44.5215C195.42 44.235 195.492 43.9681 195.635 43.7207C195.778 43.4668 195.977 43.2682 196.23 43.125C196.484 42.9818 196.758 42.9102 197.051 42.9102C197.344 42.9102 197.614 42.9818 197.861 43.125C198.115 43.2682 198.317 43.4668 198.467 43.7207C198.617 43.9681 198.691 44.235 198.691 44.5215C198.691 44.8145 198.617 45.0879 198.467 45.3418C198.317 45.5892 198.115 45.791 197.861 45.9473C197.614 46.097 197.344 46.1719 197.051 46.1719Z" fill="black"/>
<path d="M183.574 44.0527H181.104V39.0625H183.574V44.0527ZM190.117 44.0527H187.607V39.0625H190.117V44.0527ZM193.73 45.7129H177.48V43.6719H193.73V45.7129ZM185.576 30.8789C186.859 30.8789 188.005 31.0775 189.014 31.4746C190.029 31.8717 190.824 32.4316 191.396 33.1543C191.976 33.877 192.266 34.707 192.266 35.6445C192.266 36.5885 191.979 37.4219 191.406 38.1445C190.833 38.8607 190.039 39.4173 189.023 39.8145C188.014 40.2051 186.865 40.4036 185.576 40.4102C184.294 40.4036 183.145 40.2051 182.129 39.8145C181.12 39.4173 180.329 38.8607 179.756 38.1445C179.183 37.4219 178.896 36.5885 178.896 35.6445C178.896 34.707 179.183 33.877 179.756 33.1543C180.329 32.4316 181.123 31.8717 182.139 31.4746C183.154 31.0775 184.3 30.8789 185.576 30.8789ZM185.576 32.8516C184.73 32.8451 183.991 32.9525 183.359 33.1738C182.728 33.3952 182.236 33.7174 181.885 34.1406C181.533 34.5573 181.357 35.0586 181.357 35.6445C181.357 36.224 181.533 36.7285 181.885 37.1582C182.236 37.5814 182.728 37.9102 183.359 38.1445C183.997 38.3724 184.736 38.4863 185.576 38.4863C186.41 38.4863 187.145 38.3724 187.783 38.1445C188.421 37.9102 188.916 37.5814 189.268 37.1582C189.626 36.7285 189.805 36.224 189.805 35.6445C189.805 35.0586 189.629 34.5573 189.277 34.1406C188.926 33.724 188.431 33.4049 187.793 33.1836C187.161 32.9557 186.423 32.8451 185.576 32.8516Z" fill="black"/>
<path d="M163.506 33.6523H167.588V31.4258H170.088V39.6094H161.064V31.4258H163.506V33.6523ZM167.588 37.6465V35.5371H163.506V37.6465H167.588ZM166.836 42.9199H164.336V39.0527H166.836V42.9199ZM174.307 47.793H171.816V30H174.307V47.793ZM176.719 39.1992H173.545V37.1191H176.719V39.1992ZM161.23 42.4316C163.353 42.4121 165.15 42.373 166.621 42.3145C168.092 42.2559 169.508 42.1354 170.869 41.9531L171.025 43.7695C169.886 43.9648 168.698 44.1113 167.461 44.209C166.23 44.3066 165.072 44.3717 163.984 44.4043C162.904 44.4303 161.68 44.4466 160.312 44.4531L159.98 42.4316H161.23Z" fill="black"/>
<path d="M159.434 38.7891H156.279V36.748H159.434V38.7891ZM156.924 47.7637H154.424V30H156.924V47.7637ZM145.957 42.7539H143.467V31.709H145.957V42.7539ZM145.01 41.3672C146.377 41.3672 147.741 41.3053 149.102 41.1816C150.469 41.0579 151.842 40.8594 153.223 40.5859L153.496 42.6562C152.109 42.9362 150.716 43.1348 149.316 43.252C147.923 43.3626 146.488 43.418 145.01 43.418H143.467V41.3672H145.01Z" fill="black"/>
<path d="M138.76 33.7988H135.176V31.8066H138.76V33.7988ZM138.76 37.1191H135.176V35.1465H138.76V37.1191ZM140.596 40.2441H138.115V30H140.596V40.2441ZM131.797 32.3242C131.797 33.5482 131.615 34.6908 131.25 35.752C130.892 36.8132 130.345 37.7441 129.609 38.5449C128.88 39.3392 127.972 39.9414 126.885 40.3516L125.488 38.3984C126.452 38.0534 127.249 37.5716 127.881 36.9531C128.519 36.3281 128.991 35.6217 129.297 34.834C129.603 34.0462 129.756 33.2096 129.756 32.3242V30.6641H131.797V32.3242ZM132.275 32.3242C132.275 33.1576 132.419 33.9551 132.705 34.7168C132.992 35.4785 133.438 36.1654 134.043 36.7773C134.648 37.3828 135.404 37.8483 136.309 38.1738L134.893 40.1367C133.864 39.7331 132.998 39.1439 132.295 38.3691C131.598 37.5944 131.077 36.6895 130.732 35.6543C130.394 34.6191 130.225 33.5091 130.225 32.3242V30.6641H132.275V32.3242ZM131.748 41.3672C131.748 42.2917 131.605 43.1608 131.318 43.9746C131.032 44.7819 130.592 45.498 130 46.123C129.408 46.748 128.662 47.2266 127.764 47.5586L126.543 45.7227C127.298 45.4688 127.926 45.1172 128.428 44.668C128.929 44.2122 129.297 43.7012 129.531 43.1348C129.772 42.5684 129.893 41.9792 129.893 41.3672V40.8789H131.748V41.3672ZM132.305 41.3672C132.305 41.9792 132.415 42.5749 132.637 43.1543C132.858 43.7272 133.2 44.2546 133.662 44.7363C134.131 45.2116 134.723 45.6055 135.439 45.918L134.355 47.7148C133.464 47.3763 132.731 46.8815 132.158 46.2305C131.585 45.5859 131.165 44.847 130.898 44.0137C130.638 43.1738 130.508 42.2917 130.508 41.3672V40.8789H132.305V41.3672ZM138.232 41.3672C138.232 42.2331 138.099 43.0794 137.832 43.9062C137.565 44.7331 137.142 45.485 136.562 46.1621C135.983 46.8392 135.247 47.3568 134.355 47.7148L133.35 45.918C134.053 45.5924 134.632 45.179 135.088 44.6777C135.55 44.1764 135.889 43.6426 136.104 43.0762C136.318 42.5033 136.426 41.9336 136.426 41.3672V40.8789H138.232V41.3672ZM138.887 41.3672C138.887 42.0117 139.004 42.6172 139.238 43.1836C139.479 43.75 139.85 44.2546 140.352 44.6973C140.853 45.14 141.491 45.4818 142.266 45.7227L141.016 47.5586C140.104 47.2396 139.349 46.7741 138.75 46.1621C138.151 45.5566 137.712 44.847 137.432 44.0332C137.152 43.2194 137.012 42.3307 137.012 41.3672V40.8789H138.887V41.3672Z" fill="black"/>
<path d="M116.436 30.9277C117.692 30.9277 118.828 31.1426 119.844 31.5723C120.859 31.9954 121.66 32.5944 122.246 33.3691C122.832 34.1439 123.125 35.0326 123.125 36.0352C123.125 37.0378 122.832 37.9297 122.246 38.7109C121.66 39.4922 120.859 40.0944 119.844 40.5176C118.828 40.9408 117.692 41.1523 116.436 41.1523C115.186 41.1523 114.053 40.9408 113.037 40.5176C112.021 40.0944 111.221 39.4922 110.635 38.7109C110.049 37.9297 109.756 37.0378 109.756 36.0352C109.756 35.0326 110.049 34.1439 110.635 33.3691C111.221 32.5879 112.021 31.9857 113.037 31.5625C114.053 31.1393 115.186 30.9277 116.436 30.9277ZM116.436 32.9395C115.615 32.9329 114.883 33.0566 114.238 33.3105C113.594 33.5645 113.089 33.9258 112.725 34.3945C112.367 34.8633 112.188 35.4102 112.188 36.0352C112.188 36.6667 112.367 37.2168 112.725 37.6855C113.089 38.1478 113.594 38.5026 114.238 38.75C114.883 38.9974 115.615 39.1211 116.436 39.1211C117.256 39.1211 117.985 38.9974 118.623 38.75C119.261 38.5026 119.759 38.1478 120.117 37.6855C120.482 37.2168 120.664 36.6667 120.664 36.0352C120.664 35.4102 120.482 34.8633 120.117 34.3945C119.759 33.9258 119.261 33.5645 118.623 33.3105C117.985 33.0566 117.256 32.9329 116.436 32.9395ZM124.59 45.6348H108.34V43.623H124.59V45.6348Z" fill="black"/>
<path d="M97.002 41.4258C97.002 42.3503 96.8555 43.2161 96.5625 44.0234C96.2695 44.8242 95.8236 45.5273 95.2246 46.1328C94.6257 46.7448 93.8737 47.2103 92.9688 47.5293L91.748 45.7227C92.5033 45.4557 93.1283 45.1009 93.623 44.6582C94.1243 44.209 94.4954 43.7077 94.7363 43.1543C94.9772 42.6009 95.0977 42.0247 95.0977 41.4258V40.8203H97.002V41.4258ZM97.5195 41.4258C97.5195 42.0247 97.627 42.6074 97.8418 43.1738C98.0566 43.7402 98.3952 44.2578 98.8574 44.7266C99.3197 45.1888 99.9023 45.5664 100.605 45.8594L99.6191 47.6953C98.7077 47.3568 97.9622 46.8652 97.3828 46.2207C96.8099 45.5762 96.3932 44.847 96.1328 44.0332C95.8789 43.2129 95.752 42.3438 95.752 41.4258V40.8203H97.5195V41.4258ZM103.438 41.4258C103.438 42.2852 103.304 43.1283 103.037 43.9551C102.777 44.7819 102.36 45.5241 101.787 46.1816C101.214 46.8392 100.492 47.3438 99.6191 47.6953L98.5938 45.8594C99.2839 45.5404 99.86 45.14 100.322 44.6582C100.785 44.1699 101.123 43.6458 101.338 43.0859C101.559 42.526 101.67 41.9727 101.67 41.4258V40.8203H103.438V41.4258ZM104.121 41.4258C104.121 42.0638 104.238 42.6628 104.473 43.2227C104.707 43.7826 105.075 44.2806 105.576 44.7168C106.077 45.1465 106.706 45.4818 107.461 45.7227L106.26 47.5293C105.342 47.2233 104.583 46.7708 103.984 46.1719C103.385 45.5794 102.943 44.8796 102.656 44.0723C102.37 43.2585 102.227 42.3763 102.227 41.4258V40.8203H104.121V41.4258ZM105.918 40.0781H103.428V30.0391H105.918V40.0781ZM96.1816 30.9277C97.0996 30.9277 97.9264 31.11 98.6621 31.4746C99.4043 31.8392 99.987 32.347 100.41 32.998C100.833 33.6491 101.045 34.388 101.045 35.2148C101.045 36.0221 100.833 36.7513 100.41 37.4023C99.987 38.0469 99.4043 38.5514 98.6621 38.916C97.9264 39.2741 97.0996 39.4531 96.1816 39.4531C95.2637 39.4531 94.4336 39.2741 93.6914 38.916C92.9557 38.5514 92.3763 38.0469 91.9531 37.4023C91.5299 36.7513 91.3184 36.0221 91.3184 35.2148C91.3184 34.3815 91.5299 33.6426 91.9531 32.998C92.3763 32.347 92.9557 31.8392 93.6914 31.4746C94.4336 31.11 95.2637 30.9277 96.1816 30.9277ZM96.1816 33.0273C95.7064 33.0208 95.2832 33.1055 94.9121 33.2812C94.5475 33.457 94.2611 33.7109 94.0527 34.043C93.8509 34.3685 93.75 34.7591 93.75 35.2148C93.75 35.6445 93.8509 36.0254 94.0527 36.3574C94.2611 36.6829 94.5475 36.9368 94.9121 37.1191C95.2832 37.2949 95.7064 37.3861 96.1816 37.3926C96.6504 37.3861 97.0638 37.2949 97.4219 37.1191C97.7799 36.9368 98.0599 36.6829 98.2617 36.3574C98.4701 36.0254 98.5742 35.6445 98.5742 35.2148C98.5742 34.7591 98.4733 34.3685 98.2715 34.043C98.0697 33.7109 97.7865 33.457 97.4219 33.2812C97.0638 33.1055 96.6504 33.0208 96.1816 33.0273Z" fill="black"/>
<path d="M84.0137 47.8418H81.4844V30H84.0137V47.8418ZM74.3555 31.2598C75.2474 31.2598 76.0482 31.5202 76.7578 32.041C77.474 32.5618 78.0306 33.3008 78.4277 34.2578C78.8314 35.2148 79.0332 36.3281 79.0332 37.5977C79.0332 38.8737 78.8314 39.9902 78.4277 40.9473C78.0306 41.9043 77.474 42.6432 76.7578 43.1641C76.0482 43.6784 75.2474 43.9355 74.3555 43.9355C73.4505 43.9355 72.64 43.6784 71.9238 43.1641C71.2142 42.6432 70.6576 41.9043 70.2539 40.9473C69.8503 39.9902 69.6484 38.8737 69.6484 37.5977C69.6484 36.3281 69.8503 35.2148 70.2539 34.2578C70.6576 33.3008 71.2142 32.5618 71.9238 32.041C72.64 31.5202 73.4505 31.2598 74.3555 31.2598ZM74.3555 33.5156C73.8997 33.5091 73.4961 33.6654 73.1445 33.9844C72.7995 34.2969 72.5326 34.7624 72.3438 35.3809C72.1615 35.9928 72.0703 36.7318 72.0703 37.5977C72.0703 38.4635 72.1615 39.2025 72.3438 39.8145C72.5326 40.4264 72.7995 40.8919 73.1445 41.2109C73.4961 41.5234 73.8997 41.6797 74.3555 41.6797C74.8047 41.6797 75.2018 41.5234 75.5469 41.2109C75.8919 40.8919 76.1589 40.4264 76.3477 39.8145C76.5365 39.2025 76.6309 38.4635 76.6309 37.5977C76.6309 36.7318 76.5365 35.9928 76.3477 35.3809C76.1589 34.7624 75.8919 34.2969 75.5469 33.9844C75.2083 33.6654 74.8112 33.5091 74.3555 33.5156Z" fill="black"/>
<path d="M64.9805 36.1426H61.5234V34.1211H64.9805V36.1426ZM66.8262 40.3027H64.3457V30H66.8262V40.3027ZM66.8262 47.5977H54.8828V41.0254H66.8262V47.5977ZM57.373 45.5957H64.3945V42.9883H57.373V45.5957ZM58.0469 32.8027C58.0469 33.9551 57.8613 35.0326 57.4902 36.0352C57.1191 37.0312 56.556 37.9069 55.8008 38.6621C55.0521 39.4108 54.1309 39.9642 53.0371 40.3223L51.748 38.3496C52.6855 38.0436 53.4733 37.6042 54.1113 37.0312C54.7559 36.4518 55.2344 35.8008 55.5469 35.0781C55.8594 34.349 56.0156 33.5905 56.0156 32.8027V31.6504H58.0469V32.8027ZM58.5547 32.8223C58.5547 33.5449 58.7012 34.2448 58.9941 34.9219C59.2936 35.5924 59.7493 36.2044 60.3613 36.7578C60.9733 37.3047 61.735 37.7311 62.6465 38.0371L61.416 39.9902C60.3418 39.6387 59.4368 39.1048 58.7012 38.3887C57.972 37.6725 57.4284 36.8392 57.0703 35.8887C56.7122 34.9316 56.5332 33.9095 56.5332 32.8223V31.6504H58.5547V32.8223ZM62.0996 32.9199H52.4512V30.9277H62.0996V32.9199Z" fill="black"/>
<path d="M48.6621 43.3105H46.1719V30.0391H48.6621V43.3105ZM51.0645 37.5195H47.9395V35.4785H51.0645V37.5195ZM45.1074 33.8574H34.5508V31.8945H45.1074V33.8574ZM39.8438 34.4824C40.6901 34.4824 41.4453 34.6289 42.1094 34.9219C42.7734 35.2083 43.291 35.612 43.6621 36.1328C44.0332 36.6536 44.2188 37.2526 44.2188 37.9297C44.2188 38.6003 44.0332 39.1927 43.6621 39.707C43.291 40.2148 42.7734 40.612 42.1094 40.8984C41.4453 41.1849 40.6901 41.3281 39.8438 41.3281C38.9844 41.3281 38.2194 41.1849 37.5488 40.8984C36.8783 40.612 36.3574 40.2148 35.9863 39.707C35.6152 39.1927 35.4297 38.6003 35.4297 37.9297C35.4297 37.2526 35.6152 36.6536 35.9863 36.1328C36.3574 35.612 36.8783 35.2083 37.5488 34.9219C38.2194 34.6289 38.9844 34.4824 39.8438 34.4824ZM39.8438 36.3965C39.4466 36.3965 39.0951 36.4551 38.7891 36.5723C38.4896 36.6895 38.2585 36.8652 38.0957 37.0996C37.9329 37.334 37.8516 37.6107 37.8516 37.9297C37.8516 38.2487 37.9329 38.5221 38.0957 38.75C38.2585 38.9714 38.4896 39.1406 38.7891 39.2578C39.0951 39.375 39.4466 39.4336 39.8438 39.4336C40.2409 39.4336 40.5892 39.375 40.8887 39.2578C41.1947 39.1406 41.4323 38.9714 41.6016 38.75C41.7708 38.5221 41.8555 38.2487 41.8555 37.9297C41.8555 37.6107 41.7708 37.334 41.6016 37.0996C41.4323 36.8652 41.1947 36.6895 40.8887 36.5723C40.5892 36.4551 40.2409 36.3965 39.8438 36.3965ZM41.084 32.8613H38.5938V30.0098H41.084V32.8613ZM49.2969 47.4902H37.1289V45.4785H49.2969V47.4902ZM39.6191 46.3379H37.1289V42.2852H39.6191V46.3379Z" fill="black"/>
<path d="M32.2559 43.1152H29.7754V30H32.2559V43.1152ZM27.1973 33.2812H17.7246V31.2891H27.1973V33.2812ZM17.2656 38.9258C19.2969 38.9193 21.1426 38.89 22.8027 38.8379C24.4629 38.7858 26.0156 38.6816 27.4609 38.5254L27.5684 40.3418C26.084 40.5827 24.4889 40.7454 22.7832 40.8301C21.084 40.9147 19.3359 40.957 17.5391 40.957L17.2656 38.9258ZM21.5723 39.1992H19.1602V33.0371H21.5723V39.1992ZM25.7324 39.1992H23.3496V33.0371H25.7324V39.1992ZM31.1035 35.1465H27.5195V33.1445H31.1035V35.1465ZM31.1035 38.7207H27.5195V36.6797H31.1035V38.7207ZM32.6758 47.4902H20.4297V45.4785H32.6758V47.4902ZM22.9492 46.9922H20.4297V42.1289H22.9492V46.9922Z" fill="black"/>
<path d="M9.31641 41.0938H6.81641V38.5645H9.31641V41.0938ZM4.52148 31.5137H11.6504V30.2832H14.1309V36.2305H2.06055V30.2832H4.52148V31.5137ZM11.6504 34.3848V33.3203H4.52148V34.3848H11.6504ZM16.2109 39.1797H0V37.168H16.2109V39.1797ZM14.2285 44.7852H4.32617V46.4453H1.875V43.0664H11.7676V42.1191H1.86523V40.293H14.2285V44.7852ZM14.6973 47.666H1.875V45.8008H14.6973V47.666Z" fill="black"/>
<path d="M144.131 11.543C144.137 10.7552 144.209 10.1204 144.346 9.63867C144.482 9.15039 144.678 8.75977 144.932 8.4668C145.186 8.17383 145.531 7.89388 145.967 7.62695C146.455 7.32747 146.826 7.01497 147.08 6.68945C147.334 6.35742 147.461 5.98633 147.461 5.57617C147.461 5.25716 147.386 4.97721 147.236 4.73633C147.093 4.48893 146.888 4.30013 146.621 4.16992C146.361 4.03971 146.071 3.97461 145.752 3.97461C145.446 3.97461 145.156 4.04297 144.883 4.17969C144.616 4.3099 144.398 4.50846 144.229 4.77539C144.059 5.04232 143.968 5.36133 143.955 5.73242H141.182C141.201 4.84701 141.416 4.09831 141.826 3.48633C142.236 2.87435 142.78 2.41862 143.457 2.11914C144.141 1.81315 144.909 1.66016 145.762 1.66016C146.68 1.66016 147.49 1.81315 148.193 2.11914C148.896 2.41862 149.443 2.85807 149.834 3.4375C150.231 4.01042 150.43 4.69076 150.43 5.47852C150.43 6.25326 150.244 6.91081 149.873 7.45117C149.508 7.99154 148.984 8.47005 148.301 8.88672C147.923 9.10807 147.62 9.33594 147.393 9.57031C147.171 9.80469 147.002 10.0781 146.885 10.3906C146.768 10.7031 146.709 11.0872 146.709 11.543V11.7676H144.131V11.543ZM145.479 16.1719C145.186 16.1719 144.912 16.097 144.658 15.9473C144.404 15.791 144.206 15.5892 144.062 15.3418C143.919 15.0879 143.848 14.8145 143.848 14.5215C143.848 14.235 143.919 13.9681 144.062 13.7207C144.206 13.4668 144.404 13.2682 144.658 13.125C144.912 12.9818 145.186 12.9102 145.479 12.9102C145.765 12.9102 146.032 12.9818 146.279 13.125C146.533 13.2682 146.735 13.4668 146.885 13.7207C147.041 13.9681 147.119 14.235 147.119 14.5215C147.119 14.8145 147.041 15.0879 146.885 15.3418C146.735 15.5892 146.533 15.791 146.279 15.9473C146.032 16.097 145.765 16.1719 145.479 16.1719Z" fill="black"/>
<path d="M139.707 16.1719C139.414 16.1719 139.141 16.097 138.887 15.9473C138.633 15.791 138.434 15.5892 138.291 15.3418C138.148 15.0879 138.076 14.8145 138.076 14.5215C138.076 14.235 138.148 13.9681 138.291 13.7207C138.434 13.4668 138.633 13.2682 138.887 13.125C139.141 12.9818 139.414 12.9102 139.707 12.9102C140 12.9102 140.27 12.9818 140.518 13.125C140.771 13.2682 140.973 13.4668 141.123 13.7207C141.273 13.9681 141.348 14.235 141.348 14.5215C141.348 14.8145 141.273 15.0879 141.123 15.3418C140.973 15.5892 140.771 15.791 140.518 15.9473C140.27 16.097 140 16.1719 139.707 16.1719Z" fill="black"/>
<path d="M134.062 16.1719C133.77 16.1719 133.496 16.097 133.242 15.9473C132.988 15.791 132.79 15.5892 132.646 15.3418C132.503 15.0879 132.432 14.8145 132.432 14.5215C132.432 14.235 132.503 13.9681 132.646 13.7207C132.79 13.4668 132.988 13.2682 133.242 13.125C133.496 12.9818 133.77 12.9102 134.062 12.9102C134.355 12.9102 134.626 12.9818 134.873 13.125C135.127 13.2682 135.329 13.4668 135.479 13.7207C135.628 13.9681 135.703 14.235 135.703 14.5215C135.703 14.8145 135.628 15.0879 135.479 15.3418C135.329 15.5892 135.127 15.791 134.873 15.9473C134.626 16.097 134.355 16.1719 134.062 16.1719Z" fill="black"/>
<path d="M120.586 14.0527H118.115V9.0625H120.586V14.0527ZM127.129 14.0527H124.619V9.0625H127.129V14.0527ZM130.742 15.7129H114.492V13.6719H130.742V15.7129ZM122.588 0.878906C123.87 0.878906 125.016 1.07747 126.025 1.47461C127.041 1.87174 127.835 2.43164 128.408 3.1543C128.988 3.87695 129.277 4.70703 129.277 5.64453C129.277 6.58854 128.991 7.42188 128.418 8.14453C127.845 8.86068 127.051 9.41732 126.035 9.81445C125.026 10.2051 123.877 10.4036 122.588 10.4102C121.305 10.4036 120.156 10.2051 119.141 9.81445C118.132 9.41732 117.34 8.86068 116.768 8.14453C116.195 7.42188 115.908 6.58854 115.908 5.64453C115.908 4.70703 116.195 3.87695 116.768 3.1543C117.34 2.43164 118.135 1.87174 119.15 1.47461C120.166 1.07747 121.312 0.878906 122.588 0.878906ZM122.588 2.85156C121.742 2.84505 121.003 2.95247 120.371 3.17383C119.74 3.39518 119.248 3.71745 118.896 4.14062C118.545 4.55729 118.369 5.05859 118.369 5.64453C118.369 6.22396 118.545 6.72852 118.896 7.1582C119.248 7.58138 119.74 7.91016 120.371 8.14453C121.009 8.3724 121.748 8.48633 122.588 8.48633C123.421 8.48633 124.157 8.3724 124.795 8.14453C125.433 7.91016 125.928 7.58138 126.279 7.1582C126.637 6.72852 126.816 6.22396 126.816 5.64453C126.816 5.05859 126.641 4.55729 126.289 4.14062C125.938 3.72396 125.443 3.40495 124.805 3.18359C124.173 2.95573 123.434 2.84505 122.588 2.85156Z" fill="black"/>
<path d="M110.322 3.03711H99.0527V1.06445H110.322V3.03711ZM113.418 10.6348H97.207V8.62305H113.418V10.6348ZM106.475 17.8125H103.975V10.0195H106.475V17.8125ZM111.514 2.64648C111.514 3.54492 111.501 4.30664 111.475 4.93164C111.455 5.55664 111.39 6.28581 111.279 7.11914C111.175 7.94596 111.016 8.84766 110.801 9.82422L108.34 9.55078C108.555 8.6263 108.711 7.76367 108.809 6.96289C108.913 6.1556 108.975 5.44271 108.994 4.82422C109.014 4.20573 109.023 3.48307 109.023 2.65625V1.06445H111.514V2.64648Z" fill="black"/>
<path d="M94.8828 17.8418H92.4121V0H94.8828V17.8418ZM92.8418 5.81055H89.4336V3.78906H92.8418V5.81055ZM81.9434 11.8164C83.3952 11.8164 84.694 11.7839 85.8398 11.7188C86.9857 11.6471 88.1738 11.5234 89.4043 11.3477L89.5996 13.3789C88.3757 13.5677 87.1908 13.6947 86.0449 13.7598C84.9056 13.8249 83.5384 13.8574 81.9434 13.8574H80.5371V11.8164H81.9434ZM88.4863 8.33008H83.0273V12.2949H80.5371V6.39648H86.0449V3.48633H80.498V1.49414H88.4863V8.33008ZM92.7832 10.6543H89.375V8.61328H92.7832V10.6543Z" fill="black"/>
<path d="M69.0723 4.0332C69.0723 5.5957 68.8802 7.05078 68.4961 8.39844C68.1185 9.74609 67.5456 10.9342 66.7773 11.9629C66.0091 12.985 65.0521 13.7598 63.9062 14.2871L62.3926 12.207C63.4017 11.7773 64.2513 11.1458 64.9414 10.3125C65.638 9.47917 66.1589 8.52214 66.5039 7.44141C66.849 6.36068 67.0215 5.22461 67.0215 4.0332V1.37695H69.0723V4.0332ZM69.5508 4.0332C69.5508 5.16602 69.7168 6.24674 70.0488 7.27539C70.3874 8.29753 70.8952 9.21224 71.5723 10.0195C72.2493 10.8268 73.0729 11.4355 74.043 11.8457L72.5781 13.8477C71.4779 13.3464 70.5436 12.6042 69.7754 11.6211C69.0137 10.638 68.444 9.4987 68.0664 8.20312C67.6888 6.90755 67.5 5.51758 67.5 4.0332V1.37695H69.5508V4.0332ZM77.5098 17.8418H74.9805V0H77.5098V17.8418Z" fill="black"/>
<path d="M61.875 8.78906H58.7207V6.74805H61.875V8.78906ZM59.3652 17.7637H56.8652V0H59.3652V17.7637ZM48.3984 12.7539H45.9082V1.70898H48.3984V12.7539ZM47.4512 11.3672C48.8184 11.3672 50.1823 11.3053 51.543 11.1816C52.9102 11.0579 54.2839 10.8594 55.6641 10.5859L55.9375 12.6562C54.5508 12.9362 53.1576 13.1348 51.7578 13.252C50.3646 13.3626 48.929 13.418 47.4512 13.418H45.9082V11.3672H47.4512Z" fill="black"/>
<path d="M29.3359 11.3379C30.2148 11.3379 30.9115 11.3216 31.4258 11.2891C31.9466 11.2565 32.4772 11.1816 33.0176 11.0645L33.2715 13.1055C32.7051 13.2161 32.1419 13.2878 31.582 13.3203C31.0221 13.3529 30.2734 13.3691 29.3359 13.3691H28.4668V11.3379H29.3359ZM33.0566 3.64258H30.918V12.2266H28.4668V1.65039H33.0566V3.64258ZM34.8926 11.3379C36.0579 11.3379 36.9401 11.3216 37.5391 11.2891C38.1445 11.25 38.7435 11.1654 39.3359 11.0352L39.5215 13.0176C38.903 13.1738 38.2812 13.2715 37.6562 13.3105C37.0378 13.3496 36.1165 13.3691 34.8926 13.3691H33.8965V11.3379H34.8926ZM38.7793 3.64258H36.4062V12.3047H33.8965V1.65039H38.7793V3.64258ZM43.252 17.793H40.7715V0H43.252V17.793ZM41.5918 8.22266H38.0566V6.23047H41.5918V8.22266Z" fill="black"/>
<path d="M21.0547 11.7676H18.5645L18.3008 1.85547H21.3281L21.0547 11.7676ZM19.8145 16.1719C19.5215 16.1719 19.248 16.097 18.9941 15.9473C18.7402 15.791 18.5384 15.5892 18.3887 15.3418C18.2454 15.0879 18.1738 14.8145 18.1738 14.5215C18.1738 14.235 18.2454 13.9681 18.3887 13.7207C18.5384 13.4668 18.7402 13.2682 18.9941 13.125C19.248 12.9818 19.5215 12.9102 19.8145 12.9102C20.1009 12.9102 20.3678 12.9818 20.6152 13.125C20.8691 13.2682 21.071 13.4668 21.2207 13.7207C21.377 13.9681 21.4551 14.235 21.4551 14.5215C21.4551 14.8145 21.377 15.0879 21.2207 15.3418C21.071 15.5892 20.8691 15.791 20.6152 15.9473C20.3678 16.097 20.1009 16.1719 19.8145 16.1719Z" fill="black"/>
<path d="M14.0918 11.7676H11.6016V0H14.0918V11.7676ZM16.4941 6.52344H13.3887V4.45312H16.4941V6.52344ZM9.30664 11.3672C9.30664 12.4284 9.03971 13.3984 8.50586 14.2773C7.97201 15.1562 7.19401 15.8919 6.17188 16.4844C5.14974 17.0833 3.92578 17.4935 2.5 17.7148L1.54297 15.7715C2.75391 15.6022 3.78255 15.2995 4.62891 14.8633C5.48177 14.4206 6.11328 13.8965 6.52344 13.291C6.9401 12.6855 7.14844 12.0443 7.14844 11.3672V10.918H9.30664V11.3672ZM9.62891 11.3672C9.62891 12.0443 9.8405 12.6855 10.2637 13.291C10.6868 13.8965 11.3249 14.4206 12.1777 14.8633C13.0306 15.2995 14.0658 15.6022 15.2832 15.7715L14.3164 17.7148C12.9036 17.4935 11.6829 17.0833 10.6543 16.4844C9.63216 15.8919 8.85417 15.1562 8.32031 14.2773C7.79297 13.3984 7.5293 12.4284 7.5293 11.3672V10.918H9.62891V11.3672ZM4.98047 1.14258C5.89844 1.14258 6.72526 1.32812 7.46094 1.69922C8.20312 2.0638 8.78581 2.58138 9.20898 3.25195C9.63216 3.91602 9.84375 4.67122 9.84375 5.51758C9.84375 6.35091 9.63216 7.09635 9.20898 7.75391C8.78581 8.41146 8.20312 8.92578 7.46094 9.29688C6.72526 9.66146 5.89844 9.84375 4.98047 9.84375C4.0625 9.84375 3.23568 9.66146 2.5 9.29688C1.76432 8.92578 1.18164 8.41146 0.751953 7.75391C0.322266 7.08984 0.107422 6.3444 0.107422 5.51758C0.107422 4.67122 0.322266 3.91602 0.751953 3.25195C1.18164 2.58138 1.76432 2.0638 2.5 1.69922C3.23568 1.32812 4.0625 1.14258 4.98047 1.14258ZM4.98047 3.25195C4.51823 3.24544 4.10156 3.33333 3.73047 3.51562C3.36589 3.69792 3.07943 3.96159 2.87109 4.30664C2.66276 4.64518 2.55859 5.04883 2.55859 5.51758C2.55859 5.9668 2.66276 6.36068 2.87109 6.69922C3.07943 7.03125 3.36589 7.28841 3.73047 7.4707C4.10156 7.65299 4.51823 7.74414 4.98047 7.74414C5.44271 7.74414 5.85612 7.65299 6.2207 7.4707C6.5918 7.28841 6.88151 7.03125 7.08984 6.69922C7.30469 6.36068 7.41211 5.9668 7.41211 5.51758C7.41211 5.04883 7.30469 4.64518 7.08984 4.30664C6.88151 3.96159 6.5918 3.69792 6.2207 3.51562C5.85612 3.33333 5.44271 3.24544 4.98047 3.25195Z" fill="black"/>
</svg>
