<svg width="24" height="49" viewBox="0 0 24 49" fill="none" xmlns="http://www.w3.org/2000/svg">
<path d="M6 26C6.82843 26 7.5 25.3284 7.5 24.5C7.5 23.6716 6.82843 23 6 23C5.17157 23 4.5 23.6716 4.5 24.5C4.5 25.3284 5.17157 26 6 26Z" fill="#222222"/>
<path d="M12 26C12.8284 26 13.5 25.3284 13.5 24.5C13.5 23.6716 12.8284 23 12 23C11.1716 23 10.5 23.6716 10.5 24.5C10.5 25.3284 11.1716 26 12 26Z" fill="#222222"/>
<path d="M18 26C18.8284 26 19.5 25.3284 19.5 24.5C19.5 23.6716 18.8284 23 18 23C17.1716 23 16.5 23.6716 16.5 24.5C16.5 25.3284 17.1716 26 18 26Z" fill="#222222"/>
</svg>
