<svg width="43" height="15" viewBox="0 0 43 15" fill="none" xmlns="http://www.w3.org/2000/svg">
<path d="M8.07526 14.4288C7.60718 14.6348 7.1391 14.7789 6.67177 14.8612C6.2037 14.9435 5.67972 14.985 5.10059 14.985C4.27698 14.985 3.54655 14.8688 2.91077 14.6371C2.27499 14.4054 1.76145 14.0658 1.3694 13.6175C0.978092 13.1693 0.715731 12.6131 0.583805 11.949C0.451134 11.2849 0.477221 10.5152 0.65983 9.63981C0.843185 8.7848 1.12269 8.01506 1.49909 7.3306C1.87549 6.64613 2.3458 6.06355 2.91077 5.5851C3.47499 5.1059 4.13611 4.74066 4.89413 4.4886C5.65214 4.23655 6.49885 4.10977 7.43426 4.10977C7.82035 4.10977 8.21463 4.14298 8.61712 4.21014C9.01886 4.2773 9.45861 4.40861 9.93712 4.60406L9.15899 8.29654C9.00619 8.22485 8.85861 8.15543 8.71625 8.08826C8.57389 8.0211 8.41886 7.96224 8.25116 7.91092C8.08345 7.8596 7.89265 7.8181 7.67873 7.78716C7.46482 7.75622 7.21066 7.74113 6.9155 7.74113C6.4273 7.74113 5.99276 7.88526 5.61115 8.17354C5.22953 8.46181 4.97239 8.91535 4.84046 9.53265C4.76891 9.86243 4.76146 10.1401 4.81736 10.3665C4.87326 10.5929 4.97463 10.7786 5.1222 10.9227C5.26978 11.0668 5.44792 11.1702 5.65662 11.2314C5.86531 11.2932 6.08593 11.3242 6.32072 11.3242C6.76792 11.3242 7.19053 11.2729 7.58706 11.1695C7.98358 11.0668 8.40097 10.9272 8.83849 10.7522L8.07526 14.4288Z" fill="#C9C9C9"/>
<path d="M15.5215 14.0892C15.2771 14.2846 15.0304 14.4416 14.7814 14.5601C14.5317 14.6786 14.2954 14.7706 14.0718 14.8378C13.8482 14.905 13.6395 14.948 13.4465 14.9691C13.2535 14.9895 13.0902 15 12.9583 15C12.4597 15 12.005 14.92 11.5928 14.7608C11.1807 14.6008 10.8475 14.3412 10.5933 13.9805C10.3392 13.6198 10.1759 13.1489 10.1051 12.5671C10.0336 11.9852 10.0843 11.2774 10.2579 10.4427L11.5548 4.29464H15.6594L14.4236 10.1499C14.3521 10.4797 14.3573 10.7476 14.4386 10.9529C14.5198 11.1589 14.7032 11.2615 14.9879 11.2615C15.1608 11.2615 15.3389 11.2102 15.5223 11.1068C15.7056 11.0042 15.9039 10.7982 16.1171 10.4888L17.4296 4.29389H21.5342L19.337 14.7835H15.9039L15.5223 14.0884L15.5215 14.0892Z" fill="#C9C9C9"/>
<path d="M28.0179 0.8808L25.1036 14.7844H21.0146L23.9282 0.8808H28.0172H28.0179Z" fill="#C9C9C9"/>
<path d="M29.6348 10.8601C29.9397 10.8601 30.2073 10.9121 30.4361 11.0148C30.6649 11.1181 30.8453 11.2623 30.9779 11.4472C31.1099 11.6328 31.1993 11.8486 31.2448 12.0962C31.2902 12.3437 31.2828 12.6108 31.2217 12.8999C31.1605 13.1776 31.0562 13.4409 30.9086 13.6877C30.761 13.9352 30.5807 14.1488 30.3668 14.3292C30.1528 14.5095 29.9091 14.6537 29.6341 14.7616C29.359 14.8695 29.0646 14.9238 28.7494 14.9238C28.4341 14.9238 28.1792 14.8695 27.9556 14.7616C27.732 14.6537 27.5516 14.5088 27.4137 14.3292C27.2766 14.1488 27.1871 13.9352 27.1469 13.6877C27.1059 13.4402 27.1163 13.1776 27.1774 12.8999C27.2385 12.6116 27.3429 12.3437 27.4905 12.0962C27.638 11.8486 27.8184 11.6328 28.0323 11.4472C28.2463 11.2615 28.49 11.1174 28.765 11.0148C29.0393 10.9121 29.3292 10.8601 29.6348 10.8601Z" fill="#C9C9C9"/>
<path d="M39.0639 8.00226L37.6447 14.7843H33.5401L34.9593 8.00226H33.4641L34.2117 4.44939H35.7069C35.8492 3.83133 36.0549 3.25177 36.3247 2.71144C36.5938 2.17036 36.9396 1.69946 37.3623 1.29799C37.7841 0.896519 38.2798 0.579568 38.85 0.347892C39.4194 0.116215 40.0708 0 40.8028 0C41.291 0 41.7128 0.0286765 42.0691 0.0852749C42.4254 0.141873 42.7354 0.227148 43 0.340345L42.2674 3.87812C42.0333 3.80643 41.7918 3.7521 41.5429 3.71587C41.2932 3.67965 41.0264 3.6721 40.7416 3.69248C40.2534 3.72342 39.9426 3.97547 39.8107 4.44939H41.9007L41.1531 8.00226H39.0624H39.0639Z" fill="#C9C9C9"/>
</svg>
