<svg width="17" height="16" viewBox="0 0 17 16" fill="none" xmlns="http://www.w3.org/2000/svg">
<path d="M7.7093 2.08136H2.49096C2.09553 2.08136 1.7163 2.23844 1.43669 2.51805C1.15708 2.79766 1 3.17689 1 3.57232V14.009C1 14.4044 1.15708 14.7837 1.43669 15.0633C1.7163 15.3429 2.09553 15.5 2.49096 15.5H12.9276C13.3231 15.5 13.7023 15.3429 13.9819 15.0633C14.2615 14.7837 14.4186 14.4044 14.4186 14.009V8.79066" stroke="#474747" stroke-linecap="round" stroke-linejoin="round"/>
<path d="M13.3002 0.963242C13.5967 0.666672 13.999 0.500061 14.4184 0.500061C14.8378 0.500061 15.24 0.666672 15.5366 0.963242C15.8332 1.25981 15.9998 1.66205 15.9998 2.08146C15.9998 2.50087 15.8332 2.90311 15.5366 3.19968L8.45457 10.2817L5.47266 11.0272L6.21813 8.04528L13.3002 0.963242Z" stroke="#474747" stroke-linecap="round" stroke-linejoin="round"/>
</svg>
