<svg width="43" height="15" viewBox="0 0 43 15" fill="none" xmlns="http://www.w3.org/2000/svg">
<path d="M7.57477 14.4288C7.10669 14.6348 6.63862 14.7789 6.17129 14.8612C5.70321 14.9435 5.17923 14.985 4.6001 14.985C3.7765 14.985 3.04606 14.8688 2.41028 14.6371C1.7745 14.4054 1.26096 14.0658 0.868909 13.6175C0.477604 13.1693 0.215243 12.6131 0.0833169 11.949C-0.0493543 11.2849 -0.0232672 10.5152 0.159342 9.63981C0.342697 8.7848 0.6222 8.01506 0.998599 7.3306C1.375 6.64613 1.84531 6.06355 2.41028 5.5851C2.97451 5.1059 3.63563 4.74066 4.39364 4.4886C5.15165 4.23655 5.99837 4.10977 6.93377 4.10977C7.31986 4.10977 7.71415 4.14298 8.11663 4.21014C8.51837 4.2773 8.95813 4.40861 9.43664 4.60406L8.6585 8.29654C8.5057 8.22485 8.35812 8.15543 8.21576 8.08826C8.0734 8.0211 7.91837 7.96224 7.75067 7.91092C7.58297 7.8596 7.39216 7.8181 7.17824 7.78716C6.96433 7.75622 6.71017 7.74113 6.41501 7.74113C5.92681 7.74113 5.49228 7.88526 5.11066 8.17354C4.72904 8.46181 4.4719 8.91535 4.33998 9.53265C4.26842 9.86243 4.26097 10.1401 4.31687 10.3665C4.37277 10.5929 4.47414 10.7786 4.62172 10.9227C4.76929 11.0668 4.94743 11.1702 5.15613 11.2314C5.36482 11.2932 5.58544 11.3242 5.82023 11.3242C6.26743 11.3242 6.69004 11.2729 7.08657 11.1695C7.48309 11.0668 7.90048 10.9272 8.338 10.7522L7.57477 14.4288Z" fill="#C9C9C9"/>
<path d="M15.021 14.0892C14.7766 14.2846 14.5299 14.4416 14.2809 14.5601C14.0312 14.6786 13.795 14.7706 13.5714 14.8378C13.3478 14.905 13.1391 14.948 12.946 14.9691C12.753 14.9895 12.5897 15 12.4578 15C11.9592 15 11.5045 14.92 11.0923 14.7608C10.6802 14.6008 10.347 14.3412 10.0928 13.9805C9.83868 13.6198 9.67544 13.1489 9.60464 12.5671C9.53308 11.9852 9.58377 11.2774 9.75743 10.4427L11.0543 4.29464H15.1589L13.9232 10.1499C13.8516 10.4797 13.8568 10.7476 13.9381 10.9529C14.0193 11.1589 14.2027 11.2615 14.4874 11.2615C14.6603 11.2615 14.8384 11.2102 15.0218 11.1068C15.2051 11.0042 15.4034 10.7982 15.6166 10.4888L16.9291 4.29388H21.0337L18.8365 14.7835H15.4034L15.0218 14.0884L15.021 14.0892Z" fill="#C9C9C9"/>
<path d="M27.5174 0.880798L24.6031 14.7844H20.5142L23.4277 0.880798H27.5167H27.5174Z" fill="#C9C9C9"/>
<path d="M29.1343 10.86C29.4392 10.86 29.7068 10.9121 29.9356 11.0147C30.1644 11.1181 30.3448 11.2623 30.4774 11.4472C30.6094 11.6328 30.6988 11.8486 30.7443 12.0962C30.7897 12.3437 30.7823 12.6108 30.7212 12.8999C30.6601 13.1776 30.5557 13.4409 30.4081 13.6877C30.2606 13.9352 30.0802 14.1488 29.8663 14.3292C29.6524 14.5095 29.4086 14.6536 29.1336 14.7616C28.8586 14.8695 28.5642 14.9238 28.2489 14.9238C27.9336 14.9238 27.6787 14.8695 27.4551 14.7616C27.2315 14.6536 27.0511 14.5088 26.9132 14.3292C26.7761 14.1488 26.6866 13.9352 26.6464 13.6877C26.6054 13.4402 26.6158 13.1776 26.6769 12.8999C26.7381 12.6116 26.8424 12.3437 26.99 12.0962C27.1376 11.8486 27.3179 11.6328 27.5318 11.4472C27.7458 11.2615 27.9895 11.1174 28.2645 11.0147C28.5388 10.9121 28.8287 10.86 29.1343 10.86Z" fill="#C9C9C9"/>
<path d="M38.5634 8.00226L37.1443 14.7843H33.0396L34.4588 8.00226H32.9636L33.7112 4.44939H35.2064C35.3487 3.83133 35.5544 3.25177 35.8243 2.71144C36.0933 2.17036 36.4392 1.69946 36.8618 1.29799C37.2836 0.896519 37.7793 0.579568 38.3495 0.347892C38.9189 0.116215 39.5703 0 40.3023 0C40.7905 0 41.2123 0.0286765 41.5686 0.0852749C41.9249 0.141873 42.235 0.227148 42.4996 0.340345L41.7669 3.87812C41.5328 3.80643 41.2913 3.7521 41.0424 3.71587C40.7927 3.67965 40.5259 3.6721 40.2412 3.69248C39.753 3.72342 39.4421 3.97547 39.3102 4.44939H41.4002L40.6526 8.00226H38.5619H38.5634Z" fill="#C9C9C9"/>
</svg>
