<svg width="36" height="36" viewBox="0 0 36 36" fill="none" xmlns="http://www.w3.org/2000/svg">
<path d="M6 30H8.66667M8.66667 30H27.3333M8.66667 30V14.4373M30 30H27.3333M27.3333 30V14.4373M8.66667 14.4373C8.61681 14.4087 8.5679 14.3785 8.52 14.3467L7.8 13.8667C7.29101 13.5272 6.91424 13.023 6.7329 12.4386C6.55155 11.8543 6.57665 11.2254 6.804 10.6573L7.996 7.676C8.19399 7.18121 8.53568 6.75709 8.97702 6.45835C9.41835 6.15961 9.93907 5.99996 10.472 6H25.528C26.0609 5.99996 26.5817 6.15961 27.023 6.45835C27.4643 6.75709 27.806 7.18121 28.004 7.676L29.196 10.6573C29.4233 11.2254 29.4485 11.8543 29.2671 12.4386C29.0858 13.023 28.709 13.5272 28.2 13.8667L27.48 14.3467C27.4321 14.3785 27.3832 14.4087 27.3333 14.4373M8.66667 14.4373C9.0974 14.6861 9.58912 14.8095 10.0863 14.7934C10.5834 14.7774 11.0662 14.6227 11.48 14.3467L14 12.6667L16.52 14.3467C16.9582 14.639 17.4732 14.7951 18 14.7951C18.5268 14.7951 19.0418 14.639 19.48 14.3467L22 12.6667L24.52 14.3467C24.9338 14.6227 25.4166 14.7774 25.9137 14.7934C26.4109 14.8095 26.9026 14.6861 27.3333 14.4373" stroke="#AEAEAE" stroke-width="1.5" stroke-linecap="round" stroke-linejoin="round"/>
<path d="M20.6667 30V23.3334C20.6667 22.6261 20.3857 21.9478 19.8856 21.4477C19.3855 20.9476 18.7073 20.6667 18 20.6667C17.2928 20.6667 16.6145 20.9476 16.1144 21.4477C15.6143 21.9478 15.3333 22.6261 15.3333 23.3334V30" stroke="#AEAEAE" stroke-width="1.5"/>
</svg>
