<svg width="32" height="32" viewBox="0 0 32 32" fill="none" xmlns="http://www.w3.org/2000/svg">
<circle cx="16" cy="16" r="15.5" fill="#EAEAEA" fill-opacity="0.6" stroke="#A7A7A7"/>
<path d="M16.0001 7.00023L16.7244 6.3107C16.5356 6.11245 16.2739 6.00023 16.0001 6.00023C15.7264 6.00023 15.4646 6.11244 15.2759 6.31069L16.0001 7.00023ZM15.0001 25.0002V26.0002H17.0001V25.0002H15.0001ZM22.2759 15.0423C22.6567 15.4423 23.2897 15.4579 23.6897 15.0771C24.0896 14.6962 24.1052 14.0633 23.7244 13.6633L22.2759 15.0423ZM8.27588 13.663C7.89505 14.063 7.91059 14.696 8.31058 15.0768C8.71057 15.4576 9.34355 15.4421 9.72437 15.0421L8.27588 13.663ZM15.0001 7.00023V25.0002H17.0001V7.00023L15.0001 7.00023ZM15.2759 7.68976L22.2759 15.0423L23.7244 13.6633L16.7244 6.3107L15.2759 7.68976ZM15.2759 6.31069L8.27588 13.663L9.72437 15.0421L16.7244 7.68977L15.2759 6.31069Z" fill="#A7A7A7"/>
</svg>
