<svg width="28" height="28" viewBox="0 0 28 28" fill="none" xmlns="http://www.w3.org/2000/svg">
<path d="M14.0001 25.9999C20.6275 25.9999 26.0001 20.6273 26.0001 13.9999C26.0001 7.37246 20.6275 1.99988 14.0001 1.99988C7.3727 1.99988 2.00012 7.37246 2.00012 13.9999C2.00012 20.6273 7.3727 25.9999 14.0001 25.9999Z" stroke="#222222" stroke-width="1.5" stroke-miterlimit="10"/>
<path d="M14.1985 16.2002C16.5537 16.2002 18.463 14.275 18.463 11.9002C18.463 9.52539 16.5537 7.60022 14.1985 7.60022C11.8433 7.60022 9.93408 9.52539 9.93408 11.9002C9.93408 14.275 11.8433 16.2002 14.1985 16.2002Z" stroke="#222222" stroke-width="1.5" stroke-miterlimit="10"/>
<path d="M5.96729 22.6003C6.79005 20.1585 9.10426 18.4003 11.8294 18.4003H16.1713C18.8974 18.4003 21.2106 20.1585 22.0334 22.6003" stroke="#222222" stroke-width="1.5" stroke-miterlimit="10"/>
</svg>
