<svg width="45" height="18" viewBox="0 0 45 18" fill="none" xmlns="http://www.w3.org/2000/svg">
<path d="M8.98575 15.9351C8.52317 16.1387 8.0606 16.2812 7.59876 16.3624C7.13619 16.4437 6.61837 16.4848 6.04604 16.4848C5.23211 16.4848 4.51026 16.3699 3.88195 16.141C3.25365 15.912 2.74614 15.5764 2.3587 15.1334C1.97199 14.6904 1.71271 14.1408 1.58234 13.4845C1.45123 12.8282 1.47701 12.0675 1.65747 11.2024C1.83867 10.3575 2.11489 9.59676 2.48686 8.92034C2.85884 8.24392 3.32362 7.66818 3.88195 7.19536C4.43955 6.72179 5.0929 6.36084 5.84201 6.11175C6.59111 5.86266 7.42787 5.73737 8.35229 5.73737C8.73384 5.73737 9.12349 5.77018 9.52125 5.83655C9.91827 5.90293 10.3528 6.03269 10.8257 6.22585L10.0567 9.87494C9.90574 9.80409 9.7599 9.73548 9.61921 9.6691C9.47852 9.60273 9.32531 9.54456 9.15958 9.49384C8.99385 9.44313 8.80529 9.40211 8.59389 9.37154C8.38249 9.34096 8.13131 9.32604 7.83962 9.32604C7.35716 9.32604 6.92773 9.46849 6.5506 9.75337C6.17347 10.0383 5.91935 10.4865 5.78897 11.0965C5.71826 11.4224 5.71089 11.6969 5.76614 11.9206C5.82138 12.1443 5.92156 12.3278 6.0674 12.4702C6.21324 12.6127 6.38929 12.7149 6.59553 12.7753C6.80178 12.8364 7.0198 12.867 7.25183 12.867C7.69378 12.867 8.11142 12.8163 8.50329 12.7141C8.89515 12.6127 9.30764 12.4747 9.74001 12.3017L8.98575 15.9351Z" fill="#CACACA"/>
<path d="M16.3445 15.5999C16.1029 15.7931 15.8591 15.9482 15.613 16.0653C15.3663 16.1824 15.1328 16.2734 14.9118 16.3397C14.6908 16.4061 14.4846 16.4486 14.2938 16.4695C14.1031 16.4896 13.9417 16.5001 13.8114 16.5001C13.3186 16.5001 12.8693 16.421 12.4619 16.2637C12.0546 16.1056 11.7254 15.849 11.4742 15.4925C11.223 15.136 11.0617 14.6707 10.9917 14.0957C10.921 13.5207 10.9711 12.8212 11.1427 11.9963L12.4244 5.92048H16.4807L15.2595 11.707C15.1888 12.0329 15.1939 12.2976 15.2742 12.5005C15.3545 12.7041 15.5357 12.8055 15.8171 12.8055C15.988 12.8055 16.164 12.7548 16.3452 12.6526C16.5264 12.5512 16.7223 12.3476 16.933 12.0418L18.2301 5.91974H22.2865L20.1151 16.286H16.7223L16.3452 15.5992L16.3445 15.5999Z" fill="#CACACA"/>
<path d="M28.6939 2.54678L25.8139 16.287H21.7729L24.6523 2.54678H28.6932H28.6939Z" fill="#CACACA"/>
<path d="M30.2918 12.409C30.5931 12.409 30.8575 12.4605 31.0837 12.5619C31.3098 12.6641 31.488 12.8065 31.6191 12.9892C31.7495 13.1727 31.8379 13.386 31.8828 13.6306C31.9278 13.8752 31.9204 14.1392 31.86 14.4248C31.7996 14.6993 31.6965 14.9596 31.5506 15.2034C31.4048 15.448 31.2265 15.6591 31.0151 15.8373C30.8037 16.0156 30.5629 16.158 30.2911 16.2647C30.0193 16.3713 29.7283 16.425 29.4168 16.425C29.1052 16.425 28.8533 16.3713 28.6323 16.2647C28.4113 16.158 28.2331 16.0148 28.0968 15.8373C27.9613 15.6591 27.8729 15.448 27.8331 15.2034C27.7926 14.9588 27.8029 14.6993 27.8633 14.4248C27.9237 14.1399 28.0268 13.8752 28.1727 13.6306C28.3185 13.386 28.4968 13.1727 28.7082 12.9892C28.9196 12.8057 29.1604 12.6633 29.4322 12.5619C29.7033 12.4605 29.9898 12.409 30.2918 12.409Z" fill="#CACACA"/>
<path d="M39.6099 9.58449L38.2074 16.2868H34.1511L35.5535 9.58449H34.0759L34.8147 6.07337H36.2923C36.433 5.46258 36.6363 4.88982 36.9029 4.35585C37.1688 3.82112 37.5106 3.35576 37.9283 2.95901C38.3452 2.56225 38.835 2.24903 39.3985 2.02007C39.9612 1.79112 40.605 1.67627 41.3283 1.67627C41.8108 1.67627 42.2277 1.70461 42.5798 1.76054C42.9319 1.81648 43.2383 1.90075 43.4998 2.01261L42.7757 5.50882C42.5444 5.43797 42.3058 5.38427 42.0598 5.34847C41.813 5.31268 41.5493 5.30522 41.2679 5.32536C40.7855 5.35593 40.4783 5.60502 40.3479 6.07337H42.4133L41.6745 9.58449H39.6084H39.6099Z" fill="#CACACA"/>
</svg>
