<svg width="24" height="24" viewBox="0 0 24 24" fill="none" xmlns="http://www.w3.org/2000/svg">
<path d="M3 21.0001L7.63 16.3691ZM7.635 16.3641L4.855 13.5841C3.901 12.6311 4.861 10.5881 6.165 10.5061C7.343 10.4311 10.07 10.8581 10.977 9.95105L13.467 7.46105C14.084 6.84305 13.692 5.46105 13.652 4.69905C13.594 3.68305 15.21 2.42805 16.067 3.28505L20.714 7.93305C21.574 8.79105 20.314 10.4021 19.301 10.3481C18.539 10.3081 17.156 9.91605 16.538 10.5331L14.048 13.0231C13.142 13.9301 13.568 16.6561 13.494 17.8341C13.412 19.1391 11.369 20.0991 10.414 19.1441L7.635 16.3641Z" fill="#6314E4"/>
<path d="M3 21.0001L7.63 16.3691M7.635 16.3641L4.855 13.5841C3.901 12.6311 4.861 10.5881 6.165 10.5061C7.343 10.4311 10.07 10.8581 10.977 9.95105L13.467 7.46105C14.084 6.84305 13.692 5.46105 13.652 4.69905C13.594 3.68305 15.21 2.42805 16.067 3.28505L20.714 7.93305C21.574 8.79105 20.314 10.4021 19.301 10.3481C18.539 10.3081 17.156 9.91605 16.538 10.5331L14.048 13.0231C13.142 13.9301 13.568 16.6561 13.494 17.8341C13.412 19.1391 11.369 20.0991 10.414 19.1441L7.635 16.3641Z" stroke="#6314E4" stroke-width="1.5" stroke-linecap="round" stroke-linejoin="round"/>
</svg>
