<svg width="28" height="26" viewBox="0 0 28 26" fill="none" xmlns="http://www.w3.org/2000/svg">
<path d="M16.8211 24.2298C22.2604 23.8799 26.5921 19.6104 26.9483 14.2509C27.0172 13.2025 27.0172 12.1162 26.9483 11.0678C26.5921 5.70954 22.2604 1.44264 16.8211 1.09022C14.9424 0.969927 13.0576 0.969927 11.1789 1.09022C5.73957 1.44137 1.40786 5.70954 1.05165 11.0691C0.982783 12.129 0.982783 13.1922 1.05165 14.2522C1.18165 16.2037 2.06958 18.0113 3.1161 19.5372C3.72322 20.6045 3.32281 21.9372 2.68969 23.103C2.23468 23.943 2.00587 24.3624 2.18918 24.6655C2.37118 24.9687 2.78069 24.9788 3.59842 24.9977C5.21696 25.0356 6.30769 24.591 7.17351 23.9708C7.66362 23.6184 7.90933 23.4428 8.07833 23.4226C8.24734 23.4024 8.58145 23.5363 9.24706 23.8016C9.84508 24.0415 10.5406 24.1893 11.1776 24.231C13.0302 24.3498 14.9659 24.3498 16.8224 24.231" stroke="#AEAEAE" stroke-width="1.5" stroke-linecap="round" stroke-linejoin="round"/>
</svg>
